<svg width="49" height="22" viewBox="0 0 49 22" fill="none" xmlns="http://www.w3.org/2000/svg">
    <path
        d="M45.4891 3.59819C44.5392 2.6418 43.4149 1.87765 42.1774 1.34738C40.8888 0.792621 39.4998 0.511524 38.0976 0.521776C36.7058 0.512176 35.3271 0.793336 34.0493 1.34738C32.8139 1.88098 31.6904 2.64472 30.7383 3.59819C30.3793 3.96396 30.0475 4.35564 29.7456 4.77007C30.7498 5.38426 31.955 6.11813 33.004 6.75905C33.1293 6.60961 33.2594 6.46441 33.398 6.3259C34.003 5.72263 34.7169 5.2404 35.5015 4.90494C36.3215 4.55226 37.2055 4.37396 38.0976 4.38127C38.9967 4.37276 39.8879 4.55105 40.715 4.90494C41.4996 5.2404 42.2135 5.72263 42.8185 6.3259C43.4196 6.92948 43.8983 7.64435 44.2282 8.43091C44.5721 9.2453 44.7466 10.1216 44.7409 11.0061C44.7464 11.8906 44.5719 12.7669 44.2282 13.5814C43.8966 14.37 43.4181 15.0879 42.8185 15.6967C42.2155 16.3051 41.5013 16.791 40.715 17.128C39.8878 17.4816 38.9967 17.6599 38.0976 17.6517C37.2055 17.6587 36.3216 17.4804 35.5015 17.128C35.404 17.0855 35.312 17.035 35.217 16.9883L33.3345 15.4592L32.869 15.0837L27.6754 10.9004L24.8983 8.66359L24.9122 8.61256L18.4275 3.34122C18.0374 2.96931 17.6189 2.62867 17.1757 2.32243C16.6145 1.9425 16.0191 1.61606 15.3973 1.34738C14.1075 0.792229 12.7172 0.511125 11.3139 0.521776C9.92241 0.512309 8.54418 0.793468 7.26679 1.34738C6.03109 1.88053 4.9075 2.64433 3.95574 3.59819C3.00348 4.55632 2.24193 5.68785 1.71186 6.93219C1.16092 8.21877 0.881061 9.6058 0.889849 11.0061C0.881232 12.4063 1.16109 13.7931 1.71186 15.0795C2.24014 16.3216 3.00199 17.4498 3.95574 18.4025C4.90973 19.3509 6.03294 20.1107 7.26679 20.6424C8.54418 21.1963 9.92241 21.4775 11.3139 21.468C12.7164 21.4783 14.1059 21.1972 15.3949 20.6424C16.6304 20.1137 17.7541 19.3536 18.7059 18.4025C19.2484 17.8528 19.7272 17.2432 20.1333 16.5855L17.2368 14.0163C16.9258 14.6356 16.5207 15.2025 16.0359 15.6967C15.4323 16.3051 14.7175 16.7911 13.9306 17.128C13.1037 17.4818 12.2128 17.6601 11.3139 17.6517C10.4222 17.6586 9.53866 17.4803 8.71893 17.128C7.93242 16.7911 7.21803 16.3051 6.61487 15.6967C6.01406 15.0865 5.53205 14.3691 5.1936 13.5814C4.84346 12.7686 4.66537 11.8916 4.67061 11.0061C4.66512 10.1206 4.84322 9.24363 5.1936 8.43091C5.53024 7.64523 6.01255 6.9309 6.61487 6.3259C7.22008 5.72261 7.93413 5.24038 8.71893 4.90494C9.53858 4.55232 10.4221 4.37402 11.3139 4.38127C12.2128 4.37251 13.1038 4.55081 13.9306 4.90494C14.1407 4.99546 14.3417 5.0957 14.536 5.20262L16.3852 6.7141L21.7325 11.0845L24.5986 13.4264L31.1681 18.7913L31.8787 19.3721L32.0222 19.4894L32.03 19.4851C32.6605 19.9408 33.3377 20.3278 34.0499 20.6394C35.3277 21.1934 36.7064 21.4746 38.0983 21.465C39.5004 21.4752 40.8894 21.1941 42.178 20.6394C43.4136 20.1106 44.5375 19.3504 45.4897 18.3995C46.4362 17.4456 47.1903 16.3173 47.7106 15.0764C48.2549 13.7883 48.5311 12.4022 48.5223 11.0031C48.5313 9.60378 48.255 8.2174 47.7106 6.92916C47.1885 5.68606 46.4347 4.55445 45.4897 3.59516"
        fill="#0072BC" />
</svg>