<svg width="130" height="29" viewBox="0 0 130 29" fill="none" xmlns="http://www.w3.org/2000/svg">
    <g clip-path="url(#clip0_4171_703)">
        <path
            d="M18.1182 17.5236H5.85467L18.821 3.82371C19.008 3.66342 19.1602 3.46639 19.2683 3.24476C19.3822 3.01778 19.448 2.76954 19.4614 2.51575V2.34443C19.4518 2.0786 19.3825 1.81839 19.2586 1.58322C19.1416 1.36694 18.9857 1.17434 18.7986 1.01521C18.6204 0.86173 18.4184 0.738597 18.2006 0.650703C18.0114 0.570091 17.8086 0.526379 17.6031 0.521908H2.19859C1.95147 0.516594 1.70582 0.561302 1.4763 0.653362C1.24677 0.745421 1.03808 0.882947 0.862675 1.05773C0.685414 1.22958 0.545504 1.43639 0.451749 1.66515C0.357993 1.89391 0.312414 2.13966 0.317889 2.38696C0.312686 2.63584 0.358349 2.88315 0.452044 3.11364C0.54574 3.34413 0.685489 3.55292 0.862675 3.72712C1.03632 3.90502 1.24444 4.04532 1.47421 4.13936C1.70397 4.2334 1.95051 4.27918 2.19859 4.27387H13.5421L0.575146 18.0163C0.176448 18.4452 -0.0158405 18.8812 -0.00171658 19.3243C-0.00323222 19.5751 0.0479156 19.8235 0.148399 20.0533C0.244844 20.2771 0.382204 20.4809 0.553363 20.6541C0.728109 20.828 0.934941 20.966 1.1623 21.0605C1.39545 21.1607 1.64655 21.212 1.90017 21.2112H18.1182C18.3787 21.2134 18.6368 21.1621 18.8767 21.0605C19.104 20.9659 19.3108 20.8278 19.4856 20.6541C19.657 20.481 19.7945 20.2772 19.8912 20.0533C19.9909 19.8233 20.0418 19.575 20.0407 19.3243C20.046 19.0823 19.9991 18.8421 19.9033 18.62C19.8075 18.3979 19.665 18.1992 19.4856 18.0376C19.1152 17.6949 18.6594 17.5236 18.1182 17.5236Z"
            fill="#231F20" />
        <path
            d="M82.3416 0.52167H82.2351C80.7843 0.512991 79.3477 0.808473 78.0173 1.38919C76.7272 1.94955 75.5544 2.74996 74.5609 3.74814C73.5683 4.75016 72.7745 5.93252 72.222 7.23219C71.6465 8.57233 71.3539 10.0176 71.3625 11.4768V19.3234C71.3595 19.5827 71.4148 19.8393 71.5241 20.0743C71.6287 20.2994 71.7745 20.5028 71.9539 20.6739C72.1334 20.8466 72.345 20.982 72.5767 21.0724C72.8127 21.1656 73.0641 21.2128 73.3176 21.2115C73.5595 21.2169 73.7998 21.1721 74.0235 21.0799C74.2473 20.9877 74.4496 20.8501 74.6178 20.6757C74.9677 20.3185 75.1429 19.8683 75.1433 19.3252V11.4775C75.1378 10.519 75.3309 9.56979 75.7104 8.69021C76.0738 7.83798 76.5959 7.06314 77.2485 6.4072C77.8972 5.75616 78.6613 5.23242 79.5015 4.86292C80.3632 4.48299 81.2951 4.28965 82.2363 4.29551H82.3416C82.8578 4.30605 83.3575 4.11327 83.7338 3.75847C83.921 3.58824 84.0694 3.37946 84.1689 3.14638C84.2683 2.91331 84.3165 2.66144 84.3101 2.40798C84.3101 1.86487 84.1428 1.41471 83.8083 1.05749C83.4737 0.700278 82.9848 0.52167 82.3416 0.52167Z"
            fill="#231F20" />
        <path
            d="M104.687 0.521718C104.436 0.517759 104.187 0.564079 103.954 0.657963C103.721 0.751846 103.509 0.891407 103.331 1.06847C103.148 1.2395 103.003 1.4472 102.906 1.67808C102.808 1.90897 102.76 2.15787 102.764 2.40864V11.1567C102.772 12.0179 102.605 12.8717 102.273 13.6657C101.958 14.4184 101.507 15.1055 100.941 15.6918C100.378 16.271 99.706 16.7333 98.9648 17.0526C98.1958 17.3845 97.3666 17.5525 96.5296 17.5459C95.6904 17.5519 94.8586 17.3879 94.0841 17.0635C93.3392 16.7537 92.661 16.3023 92.0866 15.7343C91.515 15.1663 91.0581 14.4928 90.741 13.7508C90.4092 12.972 90.2421 12.1325 90.2501 11.2855V2.40985C90.2524 2.15182 90.2013 1.89613 90.1 1.65897C90.0026 1.43312 89.861 1.22921 89.6835 1.05936C89.5102 0.89116 89.3075 0.756473 89.0855 0.662056C88.8515 0.566685 88.6008 0.519377 88.3482 0.522935C88.1002 0.517713 87.8538 0.563534 87.6242 0.657569C87.3945 0.751605 87.1865 0.891862 87.0129 1.06969C86.836 1.24409 86.6964 1.45291 86.6027 1.68335C86.509 1.9138 86.4632 2.16101 86.4681 2.40985V11.2424C86.4609 12.4343 86.6659 13.6179 87.0734 14.7374C87.4683 15.8188 88.0466 16.8234 88.7828 17.7069C89.5136 18.5832 90.3832 19.3327 91.3566 19.9255C92.3474 20.529 93.4408 20.9434 94.5817 21.1478V26.5929C94.5817 27.136 94.7633 27.5898 95.1265 27.9543C95.4897 28.3188 95.9422 28.5011 96.4842 28.5011C96.7365 28.5051 96.9871 28.458 97.2209 28.3626C97.4425 28.2685 97.6426 28.1298 97.8086 27.9549C97.9808 27.7732 98.1183 27.5613 98.2142 27.3298C98.3141 27.096 98.3651 26.8442 98.3643 26.5898V21.166C99.5098 20.9596 100.609 20.5494 101.611 19.9547C102.595 19.3723 103.473 18.6255 104.206 17.7464C104.944 16.8599 105.526 15.8531 105.926 14.7696C106.343 13.641 106.553 12.446 106.546 11.2424V2.40864C106.551 2.16155 106.508 1.9158 106.418 1.6857C106.328 1.45561 106.194 1.24578 106.022 1.06847C105.673 0.70397 105.228 0.521718 104.687 0.521718Z"
            fill="#231F20" />
        <path
            d="M129.145 6.83124C128.624 5.60389 127.877 4.48632 126.943 3.53734C126.008 2.59445 124.902 1.84026 123.684 1.31569C122.411 0.766982 121.039 0.489173 119.654 0.499806C118.262 0.489887 116.885 0.772147 115.609 1.32845C114.381 1.86117 113.266 2.62617 112.326 3.58169C111.386 4.54375 110.635 5.67556 110.113 6.91751C109.569 8.20717 109.292 9.59499 109.302 10.9957C109.292 12.3962 109.568 13.7839 110.113 15.0733C110.632 16.3136 111.382 17.4426 112.324 18.3994C113.265 19.3497 114.378 20.1111 115.603 20.6429C116.876 21.1973 118.251 21.4785 119.64 21.4685C120.85 21.4762 122.051 21.2645 123.186 20.8434C124.281 20.4361 125.3 19.8453 126.198 19.0962L126.22 19.4C126.22 19.9463 126.392 20.4098 126.735 20.7905C127.078 21.1712 127.522 21.362 128.067 21.3628C128.323 21.3682 128.577 21.3205 128.814 21.2227C129.051 21.1248 129.265 20.979 129.443 20.7942C129.624 20.6131 129.767 20.3971 129.862 20.1592C129.958 19.9212 130.005 19.6663 130 19.4097V10.8663C129.981 9.47805 129.69 8.10707 129.145 6.83124ZM125.718 13.5746C125.394 14.3633 124.923 15.0826 124.33 15.6936C123.734 16.3024 123.027 16.7893 122.247 17.1273C121.423 17.4822 120.535 17.6607 119.64 17.6516C118.751 17.6593 117.871 17.4807 117.055 17.1273C116.277 16.7913 115.573 16.304 114.984 15.6936C114.395 15.0789 113.924 14.3603 113.595 13.574C113.251 12.7583 113.076 11.8808 113.081 10.9951C113.076 10.1093 113.251 9.23183 113.595 8.41623C113.922 7.63307 114.393 6.9186 114.984 6.31C115.576 5.70543 116.279 5.22202 117.055 4.88661C117.871 4.53346 118.751 4.3549 119.64 4.36234C120.535 4.35347 121.423 4.53202 122.247 4.88661C123.025 5.22397 123.732 5.70705 124.33 6.31C124.924 6.91602 125.396 7.63243 125.718 8.41927C126.054 9.23685 126.225 10.1135 126.22 10.9981C126.225 11.8827 126.054 12.7594 125.718 13.577"
            fill="#231F20" />
        <path
            d="M65.4891 3.59819C64.5392 2.6418 63.4149 1.87765 62.1774 1.34738C60.8888 0.792621 59.4998 0.511524 58.0976 0.521776C56.7058 0.512176 55.3271 0.793336 54.0493 1.34738C52.8139 1.88098 51.6904 2.64472 50.7383 3.59819C50.3793 3.96396 50.0475 4.35564 49.7456 4.77007C50.7498 5.38426 51.955 6.11813 53.004 6.75905C53.1293 6.60961 53.2594 6.46441 53.398 6.3259C54.003 5.72263 54.7169 5.2404 55.5015 4.90494C56.3215 4.55226 57.2055 4.37396 58.0976 4.38127C58.9967 4.37276 59.8879 4.55105 60.715 4.90494C61.4996 5.2404 62.2135 5.72263 62.8185 6.3259C63.4196 6.92948 63.8983 7.64435 64.2282 8.43091C64.5721 9.2453 64.7466 10.1216 64.7409 11.0061C64.7464 11.8906 64.5719 12.7669 64.2282 13.5814C63.8966 14.37 63.4181 15.0879 62.8185 15.6967C62.2155 16.3051 61.5013 16.791 60.715 17.128C59.8878 17.4816 58.9967 17.6599 58.0976 17.6517C57.2055 17.6587 56.3216 17.4804 55.5015 17.128C55.404 17.0855 55.312 17.035 55.217 16.9883L53.3345 15.4592L52.869 15.0837L47.6754 10.9004L44.8983 8.66359L44.9122 8.61256L38.4275 3.34122C38.0374 2.96931 37.6189 2.62867 37.1757 2.32243C36.6145 1.9425 36.0191 1.61606 35.3973 1.34738C34.1075 0.792229 32.7172 0.511125 31.3139 0.521776C29.9224 0.512309 28.5442 0.793468 27.2668 1.34738C26.0311 1.88053 24.9075 2.64433 23.9557 3.59819C23.0035 4.55632 22.2419 5.68785 21.7119 6.93219C21.1609 8.21877 20.8811 9.6058 20.8898 11.0061C20.8812 12.4063 21.1611 13.7931 21.7119 15.0795C22.2401 16.3216 23.002 17.4498 23.9557 18.4025C24.9097 19.3509 26.0329 20.1107 27.2668 20.6424C28.5442 21.1963 29.9224 21.4775 31.3139 21.468C32.7164 21.4783 34.1059 21.1972 35.3949 20.6424C36.6304 20.1137 37.7541 19.3536 38.7059 18.4025C39.2484 17.8528 39.7272 17.2432 40.1333 16.5855L37.2368 14.0163C36.9258 14.6356 36.5207 15.2025 36.0359 15.6967C35.4323 16.3051 34.7175 16.7911 33.9306 17.128C33.1037 17.4818 32.2128 17.6601 31.3139 17.6517C30.4222 17.6586 29.5387 17.4803 28.7189 17.128C27.9324 16.7911 27.218 16.3051 26.6149 15.6967C26.0141 15.0865 25.532 14.3691 25.1936 13.5814C24.8435 12.7686 24.6654 11.8916 24.6706 11.0061C24.6651 10.1206 24.8432 9.24363 25.1936 8.43091C25.5302 7.64523 26.0126 6.9309 26.6149 6.3259C27.2201 5.72261 27.9341 5.24038 28.7189 4.90494C29.5386 4.55232 30.4221 4.37402 31.3139 4.38127C32.2128 4.37251 33.1038 4.55081 33.9306 4.90494C34.1407 4.99546 34.3417 5.0957 34.536 5.20262L36.3852 6.7141L41.7325 11.0845L44.5986 13.4264L51.1681 18.7913L51.8787 19.3721L52.0222 19.4894L52.03 19.4851C52.6605 19.9408 53.3377 20.3278 54.0499 20.6394C55.3277 21.1934 56.7064 21.4746 58.0983 21.465C59.5004 21.4752 60.8894 21.1941 62.178 20.6394C63.4136 20.1106 64.5375 19.3504 65.4897 18.3995C66.4362 17.4456 67.1903 16.3173 67.7106 15.0764C68.2549 13.7883 68.5311 12.4022 68.5223 11.0031C68.5313 9.60378 68.255 8.2174 67.7106 6.92916C67.1885 5.68606 66.4347 4.55445 65.4897 3.59516"
            fill="#0072BC" />
    </g>
    <defs>
        <clipPath id="clip0_4171_703">
            <rect width="130" height="28" fill="white" transform="translate(0 0.5)" />
        </clipPath>
    </defs>
</svg>