<svg width="124" height="124" viewBox="0 0 124 124" fill="none" xmlns="http://www.w3.org/2000/svg">
    <g clip-path="url(#clip0_3208_1483)">
        <path
            d="M96.6056 123.484C91.5115 123.608 85.7672 120.93 80.7506 116.455C79.7848 115.523 78.9278 114.484 78.1959 113.358C78.0676 113.08 77.8856 112.83 77.6602 112.622C77.4349 112.415 77.1706 112.254 76.8828 112.148C76.5949 112.043 76.2891 111.996 75.983 112.01C75.6769 112.024 75.3765 112.098 75.0992 112.228C69.1381 114.133 62.9602 113.978 56.8133 113.776C53.8885 113.638 50.9943 113.117 48.2045 112.228C48.0364 112.137 47.8518 112.082 47.6617 112.064C47.4716 112.046 47.2799 112.067 47.0979 112.124C46.9159 112.182 46.7473 112.276 46.6023 112.4C46.4573 112.524 46.3387 112.676 46.2536 112.847C43.677 116.593 40.1131 119.551 35.9572 121.394C31.5727 123.335 26.73 124.002 21.9842 123.317C17.2384 122.632 12.7815 120.624 9.12446 117.523C6.02231 114.896 3.61947 111.541 2.13072 107.759C0.641958 103.976 0.11366 99.8833 0.593104 95.8465C0.873507 92.2552 1.96714 88.7747 3.79123 85.6684C5.61532 82.562 8.1221 79.9114 11.1218 77.9168C11.4667 77.7429 11.7342 77.4463 11.8717 77.0854C12.0092 76.7244 12.0068 76.3252 11.865 75.9659C10.3004 70.0104 9.74563 63.8345 10.2238 57.6954C10.3353 54.6462 10.8561 51.6258 11.7721 48.7152C11.9953 48.2412 12.0265 47.6992 11.8591 47.2028C11.6917 46.7063 11.3387 46.2941 10.8741 46.0521C5.78601 42.6215 2.2624 37.3166 1.07309 31.2964C0.212799 27.5705 0.215798 23.6972 1.08183 19.9727C1.94786 16.2481 3.654 12.7707 6.06984 9.80658C8.48568 6.84243 11.5473 4.46985 15.0206 2.87024C18.4938 1.27064 22.2869 0.486463 26.1097 0.57741C29.9899 0.57825 33.8124 1.5162 37.2522 3.31157C40.6919 5.10694 43.6472 7.70646 45.8666 10.8892C46.1474 11.4103 46.612 11.8084 47.1701 12.0059C47.7281 12.2033 48.3397 12.1861 48.8858 11.9577C53.7186 10.5475 58.7523 9.95094 63.7808 10.1925C67.6895 10.2852 71.5707 10.8731 75.3314 11.9422C75.8193 12.147 76.3661 12.1621 76.8646 11.9845C77.363 11.8069 77.7771 11.4494 78.0255 10.9822C80.0361 8.11768 82.6474 5.72619 85.6772 3.97461C88.7071 2.22302 92.0825 1.15344 95.5682 0.840506C99.4024 0.34662 103.299 0.766672 106.94 2.0664C110.581 3.36613 113.863 5.50879 116.517 8.3191C120.218 12.0951 122.551 17.0001 123.144 22.2541C124.085 28.6798 122.479 35.2187 118.669 40.4779C117.172 42.7119 115.226 44.6102 112.956 46.0521C112.521 46.2339 112.175 46.5791 111.993 47.0136C111.81 47.448 111.806 47.9369 111.981 48.3746C113.476 53.5725 114.093 58.9833 113.808 64.3844C113.68 68.1094 113.13 71.8079 112.166 75.4085C111.955 75.8714 111.928 76.397 112.088 76.8796C112.249 77.3622 112.587 77.7659 113.033 78.0096C118.072 81.5252 121.569 86.8402 122.803 92.8583C123.784 96.8637 123.73 101.053 122.646 105.031C121.563 109.01 119.486 112.648 116.61 115.603C111.748 120.899 105.632 123.469 96.6056 123.484ZM21.8054 82.9644C23.0233 82.4204 24.3423 82.1392 25.6762 82.1392C27.0101 82.1392 28.3291 82.4204 29.5471 82.9644C29.7638 83.3051 30.3367 83.4753 30.4141 83.274C30.6309 82.7786 29.9341 82.9799 29.7483 82.7166C27.8439 81.1683 23.555 80.8586 21.6041 82.7166C21.4028 82.9799 20.7215 82.7166 20.9228 83.274C20.9692 83.4753 21.5267 83.3205 21.8054 82.9644ZM107.831 74.975C110.119 67.2627 110.359 59.0877 108.528 51.2545C108.094 49.2726 107.413 49.1797 105.632 49.7062C100.245 51.2853 94.4947 51.1007 89.22 49.1796C84.9072 47.331 81.1428 44.4037 78.2888 40.6792C75.988 37.9565 74.4399 34.6789 73.7985 31.1724C72.9499 26.6311 73.2371 21.9506 74.6347 17.5471C75.0217 16.2156 74.4334 15.9988 73.6127 15.8285C69.7745 14.7757 65.8099 14.2547 61.8299 14.2802C58.0963 14.3152 54.3801 14.7933 50.7593 15.7045C49.3813 16.0451 49.118 16.5871 49.5671 18.0115C50.9575 22.4155 51.1816 27.105 50.2174 31.6215C48.8649 37.1746 45.6451 42.0943 41.0976 45.5565C36.9476 49.0908 31.6183 50.9316 26.1717 50.7124C23.3544 50.7165 20.5504 50.3256 17.8416 49.5512C16.6804 49.1796 15.9991 49.3035 15.7823 50.7744C15.4262 53.1279 14.9772 55.4195 14.6365 57.8039C13.8159 63.3315 14.8378 68.6422 15.8597 73.9995C16.0301 74.9285 16.6029 75.0524 17.4081 74.7737C19.8274 73.9314 22.3579 73.4516 24.9175 73.3493C30.9773 73.0089 36.9295 75.054 41.5002 79.0471C44.3326 81.2587 46.6361 84.074 48.2432 87.2881C49.8502 90.5023 50.7204 94.0343 50.7903 97.6272C50.8022 100.694 50.364 103.746 49.4897 106.685C49.1955 107.769 49.4897 108.063 50.4651 108.233C57.9574 110.199 65.826 110.231 73.3341 108.326C74.9753 107.908 75.0063 107.382 74.5418 106.097C73.2852 102.345 72.9454 98.3474 73.5508 94.4377C74.5144 88.6677 77.4417 83.4075 81.8375 79.5478C86.2334 75.688 91.8278 73.4655 97.6739 73.2563C101.111 73.322 104.519 73.9013 107.785 74.975H107.831ZM29.4697 99.7484L26.5588 100.77C26.1637 100.935 25.7235 100.958 25.3138 100.833C24.9041 100.709 24.5504 100.446 24.3137 100.089C24.0652 99.7299 23.9413 99.2993 23.9609 98.8631C23.9805 98.4268 24.1424 98.0091 24.4221 97.6736C25.0414 96.6363 25.9704 96.9923 26.9149 97.1936C27.7894 97.3951 28.7067 97.2878 29.511 96.8898C30.3154 96.4919 30.9573 95.828 31.3276 95.0106C31.9388 92.8935 32.0027 90.6559 31.5134 88.5074C31.4359 87.4732 31.051 86.4858 30.4082 85.6719C29.7653 84.8581 28.8939 84.2549 27.9058 83.9399C24.8091 82.7012 20.5512 84.5128 19.9473 87.4547C18.9977 91.5928 19.5866 95.9353 21.6041 99.6711C23.1524 102.474 22.2853 104.455 19.3435 105.586C16.7887 106.577 14.0947 107.273 12.0044 109.224C11.5089 109.689 10.9515 110.277 11.1373 110.943C11.3231 111.609 12.2521 111.516 12.9024 111.516H38.3106C38.961 111.516 39.859 111.81 40.1532 111.051C40.4474 110.293 39.7506 109.596 39.1777 109.054C38.9609 108.853 38.6667 108.729 38.4345 108.528C36.517 107.212 34.392 106.228 32.1482 105.617C28.8813 104.44 28.8968 102.938 29.4232 99.7639L29.4697 99.7484ZM86.0459 110.587L86.7737 111.144L88.1516 109.224C88.632 108.554 89.2879 108.028 90.0473 107.706C90.8066 107.384 91.64 107.277 92.456 107.397C94.9798 107.552 97.5191 107.397 100.043 107.397C101.591 107.397 103.14 107.01 103.14 105.044C103.14 101.947 103.14 98.7266 103.14 95.5834C103.14 94.4841 102.644 93.3072 101.22 93.3072C95.9036 93.3072 90.5929 93.3072 85.2872 93.3072C85.0248 93.2835 84.7605 93.321 84.515 93.4167C84.2696 93.5124 84.0496 93.6637 83.8726 93.8587C83.6955 94.0538 83.5661 94.2875 83.4945 94.5411C83.423 94.7946 83.4112 95.0613 83.4602 95.3201C83.5428 98.5407 83.5428 101.756 83.4602 104.966C83.387 105.461 83.5068 105.966 83.795 106.375C84.0832 106.784 84.5177 107.067 85.0085 107.165C86.0304 107.428 86.2008 108.001 86.1079 108.899C85.9531 109.503 85.9995 110.06 85.9995 110.602L86.0459 110.587ZM13.9708 25.0875C13.9102 22.7168 14.5645 20.3828 15.8485 18.389C17.1326 16.3952 18.9871 14.834 21.1705 13.9086C22.9607 13.1743 24.8925 12.8501 26.8243 12.96C28.756 13.0698 30.6387 13.6108 32.334 14.5433C32.876 14.8529 33.3405 15.1007 33.774 14.5433C33.8805 14.4292 33.9622 14.2943 34.014 14.1471C34.0658 13.9999 34.0865 13.8435 34.0748 13.6878C34.0632 13.5322 34.0195 13.3806 33.9464 13.2427C33.8733 13.1048 33.7724 12.9836 33.6501 12.8866C33.3427 12.5905 32.9865 12.3496 32.5973 12.1744C29.8811 10.7584 26.7798 10.2586 23.7563 10.7499C20.1437 11.4097 16.9047 13.3874 14.6675 16.2997C12.4304 19.212 11.3544 22.8515 11.6483 26.5121C11.8516 28.4193 12.4286 30.2678 13.3463 31.9521C14.264 33.6363 15.5045 35.1233 16.9969 36.3281C18.4893 37.533 20.2044 38.432 22.0443 38.974C23.8841 39.516 25.8128 39.6903 27.72 39.487C29.6273 39.2836 31.4757 38.7067 33.16 37.7889C34.8442 36.8712 36.3313 35.6309 37.5361 34.1385C38.741 32.6461 39.6401 30.9309 40.1821 29.0911C40.7241 27.2512 40.8984 25.3226 40.6951 23.4154C40.4285 21.4065 39.7084 19.4845 38.5893 17.7949C38.5055 17.6285 38.3838 17.484 38.234 17.3731C38.0842 17.2621 37.9105 17.1879 37.7268 17.1563C37.5431 17.1247 37.3546 17.1364 37.1763 17.1909C36.9981 17.2453 36.835 17.3408 36.7004 17.4696C35.8488 18.0425 36.4991 18.4451 36.7778 19.018C38.0455 21.4497 38.5525 24.2064 38.2332 26.93C37.6139 33.3865 31.1573 37.9541 24.7317 37.3658C18.7087 36.8703 13.2585 30.4603 13.9243 25.103L13.9708 25.0875ZM110.061 105.199L110.525 104.935C110.525 104.641 110.525 104.347 110.525 104.053C110.525 102.768 110.061 101.328 112.306 101.297C113.312 101.297 113.513 100.104 113.498 99.098C113.498 96.0013 113.498 93.044 113.498 90.0248C113.498 88.3371 112.863 87.7178 111.206 87.7332C105.896 87.7332 100.569 87.7332 95.2585 87.7332C94.8272 87.7065 94.3942 87.7431 93.9734 87.8417C92.425 88.2908 93.1683 89.5603 93.0599 90.4893C92.9515 91.4183 93.7567 91.4338 94.4225 91.4338C96.6521 91.4338 98.8817 91.4338 101.096 91.4338C101.894 91.3668 102.691 91.5875 103.341 92.056C103.991 92.5245 104.452 93.2099 104.641 93.9886C104.892 95.315 104.991 96.6655 104.936 98.0142C105.044 99.5626 104.192 101.545 106.871 101.777C107.165 101.777 107.428 102.241 107.676 102.52C108.512 103.449 109.24 104.331 110.061 105.199ZM33.7121 20.396C33.2321 21.4953 31.8541 21.6657 32.4889 23.1831C32.9809 24.3523 33.084 25.6487 32.7829 26.881C32.4818 28.1133 31.7925 29.2161 30.8167 30.0266C29.9541 30.9482 28.8341 31.5888 27.6025 31.8649C26.3708 32.1411 25.0845 32.04 23.9111 31.575C22.7824 31.2422 21.7741 30.59 21.0076 29.6972C20.2411 28.8044 19.7493 27.7089 19.5912 26.5429C19.3111 25.2774 19.4082 23.9576 19.8705 22.7467C20.3328 21.5358 21.1401 20.4871 22.1924 19.7303C23.1205 19.1379 24.1677 18.757 25.2595 18.6152C26.3514 18.4734 27.461 18.574 28.5096 18.9097C28.7201 18.9628 28.9391 18.9735 29.1538 18.9414C29.3685 18.9094 29.5747 18.8351 29.7604 18.7228C29.9462 18.6104 30.1079 18.4623 30.236 18.2871C30.3642 18.1119 30.4563 17.913 30.507 17.7019C30.7702 16.9587 29.8102 16.9433 29.2838 16.773C27.6455 16.0971 25.8355 15.9562 24.1124 16.3704C22.0746 16.8703 20.2661 18.0453 18.9813 19.7041C17.6965 21.3628 17.011 23.4076 17.0365 25.5056C17.153 27.9167 18.2175 30.1841 19.9981 31.8139C21.7788 33.4437 24.1313 34.304 26.5433 34.2073C28.1112 34.1209 29.6293 33.6263 30.9472 32.7725C32.265 31.9188 33.337 30.7354 34.0567 29.3398C34.7764 27.9442 35.1189 26.3847 35.0503 24.8159C34.9818 23.2472 34.5044 21.7235 33.6656 20.396H33.7121ZM111.671 28.9894C111.671 26.5895 111.671 24.1895 111.671 21.7741C111.671 21.1238 111.671 20.6128 110.912 20.2257C108.574 19.1729 106.84 20.2257 106.825 22.7495C106.825 26.6359 106.825 30.4913 106.825 34.4086C106.825 37.5052 106.995 37.5052 110.014 37.5052C111.361 37.5052 111.702 36.9323 111.671 35.7091C111.609 33.5569 111.609 31.2809 111.609 28.9894H111.671ZM99.7796 31.3737C99.7796 32.922 99.7796 34.4704 99.7796 36.0187C99.6713 37.9696 101.049 37.567 102.164 37.567C103.279 37.567 104.363 37.5671 104.285 35.8949C104.177 33.3711 104.285 30.8318 104.285 28.308C104.208 24.8707 104.998 25.3971 101.282 25.2113C100.167 25.2113 99.7332 25.4901 99.8106 26.6669C99.8106 28.2926 99.7332 29.8408 99.7332 31.3737H99.7796ZM108.853 11.7254C107.743 14.0792 106.125 16.1574 104.115 17.8102C98.8386 22.4214 92.1488 25.0974 85.1479 25.3971C85.4205 25.8336 85.8279 26.1695 86.3084 26.3539C86.7889 26.5383 87.3164 26.5612 87.811 26.4191C94.2814 25.5755 100.333 22.7526 105.137 18.3368C106.871 16.7885 108.234 14.7912 109.999 12.9641C110.154 13.9086 110.231 14.6362 110.417 15.3174C110.417 15.5961 110.587 16.1381 111.129 15.9058C111.423 15.7819 111.748 15.4878 111.624 15.1936C111.021 13.8621 111.532 12.4065 111.052 11.044C110.804 10.3163 110.51 9.92924 109.782 10.115C108.373 10.4712 106.964 10.8892 105.57 11.3073C105.415 11.3374 105.278 11.4272 105.188 11.5575C105.098 11.6878 105.063 11.8481 105.09 12.004C105.183 12.4065 105.586 12.3447 105.849 12.3137C106.701 12.1744 107.583 11.9731 108.806 11.7254H108.853ZM97.1785 33.046C97.1785 32.0706 97.1785 31.0796 97.1785 30.0886C97.1785 29.0977 96.9152 28.1067 95.6301 28.308C94.345 28.5093 92.5334 27.5029 92.4405 29.8563C92.4405 31.8847 92.4405 33.9286 92.4405 35.9569C92.4405 37.0407 92.905 37.5051 94.1437 37.598C97.2404 37.598 97.2404 37.598 97.2404 34.5014L97.1785 33.046ZM85.3027 33.4021C85.3492 34.2014 85.3492 35.0028 85.3027 35.8021C85.055 37.7995 86.3866 37.5671 87.6562 37.6135C88.9259 37.66 89.9632 37.4897 89.7929 35.7401C89.669 34.3856 89.669 33.0225 89.7929 31.668C89.9787 29.8719 89.2974 29.33 87.5168 29.361C85.7363 29.3919 85.0395 29.7791 85.3027 31.5442C85.3364 32.1632 85.3312 32.7837 85.2872 33.4021H85.3027ZM38.2952 9.68146C37.1803 11.493 35.3533 12.4996 35.1985 14.4815C35.1149 15.2693 34.7326 15.9951 34.1301 16.5097L26.1252 24.5147C25.9085 24.7469 25.413 24.9171 25.7846 25.3816C26.1562 25.8461 26.4968 25.3817 26.7446 25.2578C27.1572 24.9826 27.5275 24.6488 27.8439 24.2669L34.7959 17.3148C35.4393 16.585 36.3139 16.0985 37.2732 15.9368C38.1273 15.7401 38.929 15.3617 39.6237 14.8273C40.3184 14.293 40.8897 13.6152 41.2989 12.8401C38.6203 12.6388 38.6203 12.6388 38.2487 9.68146H38.2952ZM26.6517 21.6503C23.8492 22.1457 22.2698 23.787 22.6105 25.5366C22.8086 26.4358 23.3148 27.2373 24.0414 27.8028C24.768 28.3683 25.6694 28.6621 26.5897 28.6333C27.0412 28.5999 27.4798 28.4679 27.8747 28.2466C28.2696 28.0253 28.6113 27.7202 28.8755 27.3526C29.1397 26.985 29.3202 26.564 29.4041 26.1191C29.488 25.6743 29.4734 25.2163 29.3613 24.7778C27.8129 25.459 26.8839 28.4783 24.902 26.5429C22.9202 24.6075 25.2891 23.2605 26.6052 21.6503H26.6517ZM32.2566 85.1321C33.272 86.8467 33.6141 88.8773 33.2166 90.8299C32.9936 92.0971 32.9002 93.3837 32.9379 94.6698C32.9379 95.0723 32.5973 95.7382 33.3559 95.862C33.6328 95.9207 33.921 95.8929 34.1814 95.7821C34.4418 95.6713 34.6617 95.4828 34.8114 95.2426C35.4152 94.2207 36.081 92.7499 35.3378 91.9912C33.8979 90.5667 34.2385 88.7707 33.6811 87.1914C33.4673 86.3645 32.9396 85.6536 32.2102 85.2094L32.2566 85.1321ZM19.0803 85.1321C18.5109 85.6343 18.058 86.2547 17.7531 86.95C17.4483 87.6453 17.2988 88.3988 17.3152 89.1578C17.3152 89.7616 17.4855 90.4429 16.8662 90.8609C15.5191 91.7744 15.6894 92.9511 16.1229 94.2827C16.4016 95.1033 16.6803 95.831 17.6713 95.831C18.6622 95.831 18.461 94.7009 18.43 94.0196C18.2132 91.0623 17.1603 88.0894 19.0338 85.2094L19.0803 85.1321ZM31.5909 97.3949C29.6554 97.6736 27.9368 98.8659 25.893 98.1227C25.2427 97.8905 25.0569 98.4788 25.1498 99.0362C25.2427 99.5936 25.5059 100.105 26.1097 99.7949C27.8439 98.9278 29.9651 98.8039 31.5444 97.4724L31.5909 97.3949Z"
            fill="#28A9DF" />
        <path
            d="M79.0938 63.3009C80.3015 60.2042 81.4783 57.4947 82.4847 54.6612C82.8253 53.6858 83.2898 53.5465 84.1879 53.5465C87.9039 53.5465 87.9039 53.5464 87.9039 57.1695C87.9039 61.0713 87.811 64.9113 87.9039 68.8596C87.9039 70.6711 86.8665 70.222 85.8911 70.2994C84.9156 70.3768 84.0485 70.2994 84.1104 68.7511C84.2354 65.9937 84.1681 63.231 83.9091 60.483C83.1505 62.31 82.3608 64.1216 81.6486 65.9487C81.2615 66.8932 80.9054 67.8686 80.5802 68.8441C80.348 69.5408 80.286 70.2375 79.2332 70.2839C78.1803 70.3304 77.8242 69.6491 77.5455 68.9214C76.4617 66.2427 75.4398 63.5332 74.1237 60.9011C74.1237 63.5797 74.1237 66.2427 74.1237 68.9214C74.1237 69.9897 73.783 70.4698 72.7611 70.2221C71.7392 69.9744 70.0825 71.0427 70.0515 69.0299C69.9586 64.2145 70.0515 59.3837 70.0515 54.5529C70.0515 54.3052 70.0515 53.9025 70.1289 53.8406C71.4605 53.1593 72.9005 53.6703 74.2785 53.531C74.5803 53.4718 74.8932 53.5347 75.1487 53.706C75.4041 53.8772 75.5812 54.1428 75.641 54.4444C76.6784 57.3863 77.8397 60.2352 79.0938 63.3009Z"
            fill="#FCCD36" />
        <path
            d="M64.1368 64.2139C64.7889 65.1705 65.3686 66.1745 65.871 67.2176C66.2735 68.2085 67.249 68.9362 67.4193 70.0975C62.6969 70.3917 63.4865 71.011 61.4737 67.1866C60.9318 66.1647 60.6995 64.6319 58.9344 64.6938C58.1912 64.6938 57.7887 64.8642 57.8196 65.7158C57.8196 66.8306 57.8196 67.9609 57.8196 69.0602C57.959 70.5002 56.999 70.3916 56.1629 70.2678C55.3268 70.1439 54.0571 70.9955 54.0571 69.153C54.0571 64.3377 54.0571 59.5069 54.0571 54.6761C54.0571 54.1032 54.0571 53.5149 54.8777 53.5768C57.5719 53.7626 60.2815 53.2361 62.9756 53.8864C65.6697 54.5367 67.0477 55.7755 67.4193 58.2218C67.6354 59.3703 67.4656 60.5579 66.9363 61.5998C66.407 62.6416 65.5479 63.479 64.493 63.9816L64.1368 64.2139ZM60.2195 61.0087H61.133C62.542 61.0087 63.3317 60.3585 63.3162 58.934C63.3007 57.5096 62.1859 57.3856 61.1485 57.2927C60.6686 57.2927 60.1576 57.2927 59.6002 57.2927C58.0519 57.0604 57.7112 57.587 57.6028 59.1508C57.5254 61.4578 58.9654 61.0242 60.2195 61.0087Z"
            fill="#FCCD36" />
        <path
            d="M44.8446 53.5931C46.0318 53.4437 47.2371 53.6232 48.3292 54.1119C49.4214 54.6007 50.3584 55.3798 51.038 56.3645C51.7967 57.278 51.9825 57.913 50.5889 58.4394C49.1954 58.9659 48.5452 59.4303 47.3684 58.0368C46.963 57.6394 46.4798 57.3301 45.9492 57.1283C45.4185 56.9265 44.8519 56.8366 44.2848 56.8642C43.7178 56.8919 43.1626 57.0363 42.6541 57.2888C42.1456 57.5412 41.6947 57.896 41.3299 58.3309C40.404 59.2419 39.8611 60.4723 39.8121 61.7703C39.7632 63.0683 40.212 64.3358 41.0667 65.314C41.4245 65.8441 41.9001 66.2842 42.4562 66.6001C43.0123 66.9161 43.6339 67.0992 44.2725 67.1352C44.9111 67.1712 45.5493 67.0591 46.1374 66.8077C46.7255 66.5562 47.2475 66.1721 47.6626 65.6855C48.2688 65.2845 48.9997 65.117 49.72 65.2138C50.4404 65.3106 51.1011 65.6651 51.5799 66.2119C51.8741 66.6455 51.5799 66.8467 51.3786 67.1719C49.4896 70.3924 45.1852 71.5074 41.237 70.0365C39.5792 69.3937 38.1647 68.2473 37.1926 66.7585C36.2205 65.2698 35.7396 63.5137 35.8178 61.7374C35.8083 59.9067 36.4135 58.1258 37.5364 56.68C38.6594 55.2342 40.2351 54.2072 42.0111 53.7634C42.948 53.6161 43.8969 53.5591 44.8446 53.5931Z"
            fill="#FCCD36" />
    </g>
    <defs>
        <clipPath id="clip0_3208_1483">
            <rect width="123" height="123" fill="white" transform="translate(0.5 0.5)" />
        </clipPath>
    </defs>
</svg>