<svg width="121" height="121" viewBox="0 0 121 121" fill="none" xmlns="http://www.w3.org/2000/svg">
    <g clip-path="url(#clip0_3211_1530)">
        <path
            d="M32.1102 52.0286C31.5032 50.6227 31.5032 49.0781 31.4243 47.6179C30.8381 40.4068 32.0534 33.1633 34.9621 26.5317C37.8709 19.9 42.383 14.0857 48.0972 9.60555C52.6603 5.83089 58.0084 3.10877 63.7565 1.63504C67.0351 0.840225 70.3785 0.337444 73.7469 0.132651C79.5867 -0.344642 85.4612 0.44166 90.966 2.4375C100.93 5.98565 109.313 12.9177 114.637 22.0109C117.933 27.4895 119.566 33.4749 120.251 39.8707C121.264 48.3422 119.706 56.9213 115.778 64.5063C110.762 74.5395 102.043 82.2603 91.4395 86.0587C90.8811 86.2698 90.347 86.5474 89.7947 86.7888C90.1528 84.8158 90.4562 82.8306 90.875 80.8636C92.8961 71.4269 94.9477 61.9963 97.0113 52.4509C95.6275 52.4509 94.3407 52.5173 93.0721 52.4509C91.2513 52.3302 89.3455 52.8311 87.5308 52.1553C87.9556 52.1553 88.3866 52.107 88.8114 52.101C89.8432 52.101 91.0511 52.3906 91.8462 51.9622C92.8841 51.4191 91.9007 49.9288 92.8476 48.8126H83.4217C80.1745 48.8126 80.1745 48.8126 80.1685 52.0406C79.6283 52.5414 78.9545 52.469 78.2929 52.463C75.3189 52.463 72.3449 52.4992 69.3708 52.463C68.5696 52.463 67.6896 52.8311 66.943 52.1794C68.1023 52.1794 69.2676 52.0527 70.4147 52.1432C71.7136 52.2518 71.7865 51.5399 71.7258 50.5926C71.6651 49.6453 72.005 48.7463 70.4573 48.7825C67.9627 48.885 65.462 48.7825 62.9614 48.7825C61.8082 48.7825 60.3819 48.4566 59.5868 49.0057C58.7917 49.5548 59.866 50.9606 59.5868 52.0226H51.1502C51.0955 48.7945 51.0955 48.7945 48.0122 48.7945H43.2781C39.9702 48.7945 39.9701 48.7945 40.5042 52.0226C39.9701 52.5173 39.2904 52.4027 38.6834 52.457C36.4559 52.644 34.2891 52.107 32.1102 52.0286ZM40.0005 40.0275H49.7117C50.3187 40.0275 50.7131 39.9913 50.8163 39.1949C51.2473 35.9367 51.8239 32.6905 52.2488 29.4263C52.7283 25.806 52.6797 25.8061 49.1594 24.4063C48.7554 24.2941 48.3616 24.1488 47.9819 23.9718C46.8773 23.29 46.2946 23.7425 45.6269 24.7079C42.4587 29.3117 40.8381 34.4584 40.0005 40.0275ZM106.334 40.0275C107.675 40.0275 109.023 39.937 110.352 40.0275C111.681 40.118 111.918 39.3819 111.712 38.3803C110.797 33.6688 109.035 29.1598 106.51 25.0699C105.697 23.7606 104.896 23.3202 103.475 24.177C102.576 24.6618 101.617 25.0269 100.623 25.263C99.348 25.625 99.1356 26.4697 99.3177 27.6041C99.8154 30.7295 100.319 33.855 100.744 36.9926C101.145 40.0094 101.102 40.0094 104.155 40.0094L106.334 40.0275ZM99.2691 62.0686C99.2129 62.3503 99.2662 62.6427 99.4182 62.8868C99.5703 63.1309 99.8098 63.3086 100.089 63.384C101.466 63.8185 102.818 64.3302 104.137 64.9166C105.084 65.3691 105.448 65.0795 106.012 64.277C109.047 60.0534 110.668 55.2264 111.712 50.2004C111.9 49.2893 111.712 48.7221 110.534 48.7523C107.785 48.8247 105.035 48.8005 102.286 48.7523C101.448 48.7523 101.12 48.9695 101.072 49.8624C101.011 50.9907 100.695 52.101 100.525 53.2293C100.089 56.1436 99.6758 59.0819 99.2509 62.0686H99.2691ZM65.3771 40.0275C67.0826 40.0275 68.7942 39.9853 70.4997 40.0275C71.4526 40.0637 71.7804 39.7379 71.7622 38.7846C71.7075 36.0513 71.7015 33.318 71.7622 30.5848C71.7622 29.6495 71.3555 29.1669 70.5483 29.1005C67.6045 28.8531 64.6852 28.4971 61.7779 28.0023C61.1102 27.8937 60.8128 28.3221 60.7157 28.9617C60.2423 32.2199 59.7506 35.466 59.2651 38.7242C59.1316 39.6112 59.3865 40.0698 60.4183 40.0275C62.0631 39.9793 63.708 40.0275 65.3589 40.0275H65.3771ZM85.9405 40.0275C88.0769 40.0275 89.8432 40.0275 91.6094 40.0275C92.3985 40.0275 92.8233 39.75 92.6473 38.9716C92.0404 35.6229 91.5002 32.2501 91.1664 28.8531C91.1239 28.3885 90.8811 27.9963 90.3712 28.0506C88.2169 28.2157 86.0732 28.4977 83.9497 28.8953C82.7358 29.1608 81.0121 28.4187 80.4112 29.6918C79.8892 30.796 80.223 32.3043 80.1805 33.6317V33.9938C80.2716 35.9246 79.3733 38.4648 80.5083 39.6233C81.7222 40.8903 84.3078 39.8526 85.9223 40.0275H85.9405ZM71.7379 9.75035C68.2358 12.2242 66.1297 15.428 64.3635 18.9276C64.0357 19.5792 64.0357 19.8266 64.843 20.0016C66.9705 20.3974 69.1216 20.6554 71.2827 20.7739C71.9686 20.8343 71.7258 20.3395 71.7258 20.0921C71.7258 16.7193 71.7197 13.3525 71.7197 9.75035H71.7379ZM80.1866 9.75035C80.1866 13.3404 80.1866 16.7132 80.1866 20.0801C80.1866 20.3274 79.9438 20.8403 80.6297 20.7558C82.7722 20.5024 84.9391 20.424 87.0695 19.9895C87.8646 19.8266 87.9009 19.5793 87.5489 18.9216C85.6977 15.5005 83.5977 12.2785 80.1685 9.76243L80.1866 9.75035ZM57.2682 13.5817C55.677 14.5472 54.1669 15.6389 52.7525 16.846C55.9087 17.8898 56.3032 17.6183 57.25 13.5938L57.2682 13.5817ZM94.7899 13.6301C95.3118 17.5158 96.2283 18.1433 99.0931 16.6469L94.7899 13.6301ZM94.4742 75.0834C96.0379 74.2584 97.4934 73.2452 98.8079 72.0665C96.2162 70.6546 96.1858 70.6788 94.456 75.0955L94.4742 75.0834Z"
            fill="#28A9DF" />
        <path
            d="M32.1098 52.0289C34.3069 52.1073 36.4737 52.6323 38.6952 52.4633C39.3446 52.409 40.0123 52.5237 40.516 52.0289H59.5986L66.9366 52.1435C67.671 52.7952 68.551 52.415 69.3644 52.4271C72.3384 52.4874 75.3124 52.4271 78.2865 52.4271C78.9481 52.4271 79.6218 52.5055 80.162 52.0047L87.5 52.1194C89.3209 52.7951 91.1963 52.2943 93.0415 52.415C94.31 52.4934 95.5967 52.415 96.9806 52.415C94.9169 61.9603 92.8654 71.3911 90.8443 80.8278C90.4255 82.7948 90.122 84.7798 89.7639 86.7529C88.7807 88.8405 88.7139 91.1454 88.2769 93.3477C87.9856 94.8139 87.3725 95.2001 85.8855 95.2001C66.1354 95.1397 46.3852 95.1397 26.6351 95.2001C24.7778 95.2001 24.0617 94.476 23.6489 92.8529C20.1286 78.9332 16.5415 65.0255 13.0576 51.0997C12.7966 50.074 12.39 49.8387 11.4735 49.8447C8.29916 49.8447 5.11266 49.8024 1.93831 49.8809C0.797248 49.8809 0.457365 49.5611 0.505921 48.4388C0.596963 46.496 0.566616 44.5471 0.505921 42.5982C0.505921 41.7475 0.742622 41.4276 1.63484 41.4337C7.01848 41.4699 12.3961 41.4337 17.7797 41.4337C18.8722 41.4337 19.4063 41.9104 19.6552 42.9783C20.1893 45.2953 20.8691 47.576 21.4214 49.8929C21.7795 51.3953 22.5139 52.1495 24.1951 52.0651C26.8293 51.9866 29.4635 52.047 32.1098 52.0289ZM55.0586 60.4761C45.3474 60.4761 35.6362 60.4761 25.925 60.4761C24.6565 60.4761 24.0677 60.6571 24.6564 62.1052C25.026 63.2387 25.318 64.3958 25.5305 65.5685C27.149 71.9844 28.7675 78.3942 30.3861 84.7979C30.6774 85.9443 31.1144 86.8313 32.6803 86.8253C48.2061 86.773 63.7338 86.773 79.2637 86.8253C79.5027 86.859 79.7462 86.8434 79.9788 86.7793C80.2114 86.7152 80.4282 86.604 80.6157 86.4528C80.8031 86.3016 80.9571 86.1136 81.0681 85.9005C81.179 85.6873 81.2446 85.4538 81.2606 85.2143C81.5519 83.7541 81.7522 82.2698 82.0253 80.8036C83.1785 74.6492 84.2832 68.4828 85.5457 62.3526C85.8552 60.8321 85.5456 60.458 84.0464 60.4701C74.3595 60.5183 64.703 60.4881 55.0404 60.4881L55.0586 60.4761Z"
            fill="#FCCD36" />
        <path
            d="M46.1731 105.427C47.5691 113.784 44.0973 118.798 37.3055 120.578C35.1835 121.195 32.9246 121.171 30.816 120.51C28.7075 119.848 26.8446 118.578 25.464 116.861C22.2835 113.047 21.6341 108.757 23.6067 104.118C25.6581 99.2906 29.5548 97.1124 34.5317 97.0641C48.7708 96.9434 63.0098 97.0641 77.2428 96.9977C79.9125 96.924 82.53 97.7424 84.6767 99.3219C86.8233 100.901 88.3753 103.151 89.0844 105.71C91.3179 113.253 85.3334 120.68 77.9286 120.849C76.2924 120.908 74.6613 120.633 73.1357 120.043C71.6101 119.452 70.2223 118.557 69.0574 117.413C67.8926 116.269 66.9754 114.9 66.3623 113.391C65.7492 111.882 65.4531 110.264 65.4922 108.637C65.4922 108.516 65.4922 108.395 65.4922 108.275C65.6561 105.439 65.6561 105.439 62.676 105.439L46.1731 105.427ZM34.4589 112.607C36.1402 112.661 38.1795 110.797 38.307 109.029C38.4223 107.43 36.4254 105.409 34.6653 105.409C32.8444 105.409 31.0236 107.074 30.969 108.836C30.9143 110.598 32.6806 112.553 34.4589 112.607ZM77.5523 112.607C79.2214 112.541 81.2608 110.586 81.2426 109.065C81.1717 108.107 80.7482 107.208 80.053 106.54C79.3577 105.872 78.4394 105.482 77.4734 105.445C75.6526 105.517 73.8742 107.315 73.9531 109.065C73.9895 110.893 75.8104 112.637 77.528 112.577L77.5523 112.607Z"
            fill="#FCCD36" />
    </g>
    <defs>
        <clipPath id="clip0_3211_1530">
            <rect width="120" height="121" fill="white" transform="translate(0.5)" />
        </clipPath>
    </defs>
</svg>