<svg width="124" height="114" viewBox="0 0 124 114" fill="none" xmlns="http://www.w3.org/2000/svg">
    <g clip-path="url(#clip0_3210_1489)">
        <path
            d="M36.626 22.2362C37.6525 22.3371 38.6489 22.6396 39.5575 23.1262C40.4661 23.6129 41.269 24.2741 41.9198 25.0716C46.1618 29.024 52.6282 26.137 53.4731 20.26C53.5766 19.5039 53.7663 18.7821 53.8353 18.0603C54.1629 14.6235 54.2491 13.9018 58.6118 14.0049C60.957 14.0049 63.3021 14.1252 65.6301 14.0049C69.2513 13.8159 69.4927 14.847 70.0445 18.1463C70.2109 19.9201 70.647 21.6584 71.3377 23.3016C71.7463 24.121 72.3227 24.8459 73.0297 25.4297C73.7367 26.0135 74.5586 26.4431 75.4425 26.6908C76.3264 26.9386 77.2526 26.9988 78.1613 26.8679C79.07 26.737 79.9411 26.4179 80.7184 25.9308C82.2013 24.9685 83.5636 23.8344 85.0638 22.9236C85.3763 22.6831 85.7341 22.5075 86.1159 22.4074C86.4977 22.3072 86.8958 22.2846 87.2866 22.3407C87.6774 22.3968 88.0529 22.5305 88.3909 22.734C88.7288 22.9374 89.0224 23.2064 89.254 23.525C91.444 25.8964 93.7891 28.1476 96.1515 30.3987C97.2551 31.4297 97.738 32.1171 96.4275 33.5605C95.117 35.004 93.9271 37.2552 92.5648 39.0424C90.53 41.706 93.1167 47.7546 96.4964 48.3389C98.3588 48.6654 100.256 48.8888 102.118 49.1981C103.98 49.5074 105.049 50.2979 104.877 52.4632C104.67 54.9892 104.877 57.6185 104.877 60.093C104.95 61.2247 104.593 62.3421 103.877 63.2238C103.162 64.1056 102.14 64.6871 101.014 64.8529C99.4828 65.1293 97.973 65.5141 96.4964 66.0043C95.4179 66.435 94.4636 67.1258 93.7191 68.0147C92.9745 68.9036 92.463 69.9628 92.2305 71.0973C91.9981 72.2317 92.0519 73.4058 92.3871 74.5144C92.7224 75.623 93.3286 76.6315 94.1513 77.4491C95.3756 78.7207 96.7206 79.872 96.6344 81.9169C96.6618 82.4999 96.5475 83.0808 96.3013 83.6104C96.0551 84.1399 95.6843 84.6024 95.2204 84.9585C93.0145 86.7073 90.9609 88.6388 89.0816 90.7324C88.8459 91.0411 88.5498 91.2991 88.2112 91.4905C87.8727 91.682 87.4987 91.8029 87.1119 91.8463C86.7251 91.8896 86.3335 91.8544 85.9607 91.7427C85.5879 91.631 85.2417 91.4452 84.9431 91.1964C83.5953 90.2844 82.2999 89.2976 81.0632 88.2408C77.9076 85.4054 70.7169 88.086 70.51 93.2928C70.3616 94.9103 70.0849 96.5135 69.6824 98.0873C69.6135 98.6341 69.3295 99.1311 68.8931 99.4695C68.4566 99.8078 67.9032 99.9596 67.3544 99.8915H56.3874C54.3353 99.8915 54.2664 98.1731 54.025 96.9187C53.7835 95.6642 53.5594 93.9803 53.2318 92.5368C52.1454 87.8971 46.3342 85.1302 42.5406 88.6874C41.3215 89.6697 40.0431 90.5766 38.7125 91.4026C38.4541 91.6296 38.1524 91.8022 37.8254 91.9098C37.4984 92.0175 37.1529 92.0581 36.8097 92.0292C36.4666 92.0003 36.1328 91.9025 35.8286 91.7416C35.5244 91.5808 35.256 91.3602 35.0395 91.0932C32.7289 88.8249 30.4527 86.5394 28.142 84.2195C27.8378 83.9666 27.5873 83.6559 27.405 83.3054C27.2226 82.9548 27.1122 82.5716 27.0801 82.1781C27.048 81.7845 27.0948 81.3885 27.2179 81.0132C27.3411 80.6379 27.538 80.2909 27.7972 79.9923C28.7801 78.6004 29.8147 77.2599 30.6768 75.7992C31.2892 74.8257 31.6387 73.7111 31.6914 72.5633C31.7442 71.4156 31.4984 70.2736 30.978 69.2484C30.4575 68.2231 29.68 67.3493 28.7209 66.7117C27.7617 66.074 26.6535 65.6943 25.5037 65.6091C24.1587 65.4545 22.8482 64.9732 21.5204 64.8529C19.3477 64.6639 18.8304 63.2376 18.7959 61.4161C18.7959 58.4088 18.7959 55.3674 18.7959 52.3602C18.7959 49.9887 19.5719 49.3872 21.986 49.0435C24.0984 49.0142 26.1821 48.5521 28.1075 47.6859C28.9844 47.2201 29.7471 46.5669 30.341 45.773C30.9349 44.9792 31.3455 44.0643 31.5432 43.0939C31.7409 42.1234 31.7209 41.1215 31.4847 40.1596C31.2485 39.1978 30.8019 38.2999 30.1768 37.5302C29.8837 37.1521 29.6595 36.7396 29.3836 36.3444C26.1417 31.8593 25.9348 31.9967 29.8492 28.3365C31.5736 26.618 33.2979 24.8996 35.0223 23.1812C35.4707 22.7172 35.9362 22.0128 36.626 22.2362ZM43.1441 56.828C43.1409 60.5301 44.2375 64.1504 46.2959 67.2323C48.3542 70.3142 51.2821 72.7198 54.7104 74.1458C58.1387 75.5719 61.9139 75.9544 65.5601 75.2454C69.2063 74.5364 72.5602 72.7675 75.199 70.1617C77.8379 67.5559 79.6434 64.23 80.3882 60.603C81.1329 56.976 80.7835 53.2104 79.3838 49.7811C77.9842 46.3517 75.5971 43.4121 72.5234 41.3329C69.4498 39.2536 65.8271 38.1277 62.1123 38.0972C59.6283 38.0699 57.1635 38.5345 54.8611 39.464C52.5587 40.3935 50.4644 41.7694 48.6998 43.5119C46.9353 45.2544 45.5355 47.3288 44.5818 49.6147C43.6281 51.9006 43.1394 54.3524 43.1441 56.828Z"
            fill="#28A9DF" />
        <path
            d="M105.118 27.4607C104.467 25.7149 103.45 24.1272 102.135 22.8036C94.0016 13.2959 82.7571 6.9596 70.3891 4.91483C63.7959 3.73815 57.0343 3.87352 50.4938 5.31276C43.9533 6.75201 37.7632 9.46669 32.2803 13.3007C26.3601 17.2248 21.3019 22.3069 17.4128 28.2385C13.5237 34.1702 10.8849 40.8277 9.65648 47.8067C9.1947 50.1361 8.9122 52.4972 8.8115 54.8694C8.79271 55.7165 8.99399 56.5541 9.39583 57.3009C9.79768 58.0476 10.3865 58.678 11.105 59.1311C14.5537 61.6572 15.3469 67.1561 12.3982 69.8884C11.3786 70.8739 10.0848 71.5306 8.68531 71.7728C7.28582 72.0149 5.84557 71.8314 4.55228 71.246C3.39729 70.7978 2.39784 70.0249 1.67538 69.0212C0.952929 68.0176 0.538606 66.8263 0.482769 65.5924C0.407245 64.5708 0.552905 63.5449 0.909917 62.5843C1.26693 61.6237 1.82692 60.7508 2.55199 60.0247C3.86738 58.5539 4.61866 56.6671 4.673 54.6976C5.16055 44.7693 8.12385 35.1186 13.2949 26.6185C19.1617 17.1011 27.7823 9.57674 38.0225 5.03524C43.7652 2.56287 49.8538 0.980836 56.0768 0.343987C59.1461 0.0182135 62.2351 -0.0852555 65.3195 0.0345786C76.1545 0.238235 86.6369 3.90699 95.2202 10.4997C100.129 14.1111 104.475 18.4252 108.119 23.3021C108.448 23.6783 108.812 24.0234 109.205 24.3331C109.156 23.4766 109.326 22.6217 109.7 21.849C110.074 21.0763 110.64 20.4115 111.343 19.9168C113.067 18.817 113.481 19.9168 113.792 20.9994C114.042 22.5584 113.918 24.1543 113.43 25.6563C113.106 27.3117 112.685 28.9469 112.171 30.5537C111.97 31.2178 111.529 31.784 110.933 32.1427C110.338 32.5014 109.63 32.6272 108.946 32.4956C106.394 32.1175 103.911 31.4644 101.393 30.9145C101.061 30.8583 100.748 30.7227 100.48 30.5193C99.7208 29.9007 98.8586 29.1102 99.1 28.1651C99.3415 27.22 100.479 26.8934 101.411 26.8419C102.681 26.5775 104.004 26.7985 105.118 27.4607Z"
            fill="#28A9DF" />
        <path
            d="M15.2952 90.8361C14.9158 91.9359 14.5882 93.1044 14.1054 94.2729C13.8874 94.7434 13.5178 95.1277 13.0552 95.3644C12.5927 95.6011 12.0639 95.6766 11.5533 95.579C10.5014 95.3556 10.2772 94.2043 10.3635 93.1045C10.6881 90.4829 11.1718 87.8833 11.812 85.32C11.8964 84.8713 12.0698 84.4439 12.3219 84.0627C12.5739 83.6814 12.8998 83.354 13.2802 83.0996C13.6607 82.8453 14.0882 82.669 14.5378 82.5811C14.9874 82.4932 15.45 82.4955 15.8987 82.5878C18.106 82.9659 20.2787 83.5157 22.4686 83.9968C23.1449 84.115 23.7703 84.4317 24.2649 84.9062C24.7595 85.3807 25.1007 85.9915 25.2449 86.6605C25.3828 87.3135 22.5204 88.4992 21.3478 88.3789C20.7098 88.2586 20.1234 87.7259 19.313 88.1899C26.8105 98.7226 38.0279 106.04 50.714 108.673C55.7281 109.763 60.8719 110.139 65.992 109.79C71.4277 109.439 76.7635 108.166 81.77 106.027C88.369 103.362 94.358 99.393 99.3759 94.359C106.362 87.3174 111.241 78.4746 113.464 68.8232C114.302 65.3855 114.73 61.8614 114.74 58.3237C114.812 57.6796 114.685 57.0289 114.377 56.458C114.069 55.8872 113.595 55.4232 113.016 55.1275C109.86 53.4091 109.239 50.5565 109.791 47.429C110.343 44.3015 112.619 43.0814 115.326 42.2737C116.662 42.0722 118.028 42.2659 119.254 42.8311C120.48 43.3962 121.513 44.3079 122.224 45.4528C123.092 46.6555 123.498 48.1286 123.368 49.6045C123.239 51.0804 122.582 52.4608 121.517 53.4949C119.068 55.6773 118.81 58.2207 118.672 61.1764C118.358 67.0777 117.059 72.8856 114.826 78.3606C111.927 85.8784 107.393 92.6626 101.549 98.2254C93.5427 106.002 83.3676 111.188 72.3549 113.107C62.8587 114.916 53.059 114.325 43.8509 111.389C37.0526 109.162 30.7434 105.663 25.2621 101.078C21.8598 98.3237 18.8183 95.1542 16.2091 91.6439C16.1601 91.4313 16.0457 91.2391 15.8819 91.0943C15.718 90.9496 15.5129 90.8592 15.2952 90.8361Z"
            fill="#28A9DF" />
        <path
            d="M68.389 60.695C68.2778 61.6294 67.9445 62.5236 67.4166 63.3037C66.8887 64.0838 66.1816 64.7271 65.3541 65.1801C64.5954 65.5582 63.9056 66.0565 63.8711 66.8985C63.8711 68.2561 62.9055 68.342 61.9398 68.4107C60.9742 68.4795 60.2154 68.4107 60.043 67.1047C59.7154 65.3863 57.8875 65.3863 56.5942 64.9051C54.3008 64.0459 56.2321 63.0148 56.3356 62.1213C56.4908 60.8668 57.1978 60.8497 58.2669 61.3309C59.336 61.812 60.9052 62.7227 62.4916 61.8635C63.8194 61.1417 63.8367 60.4372 62.6468 59.7154C61.457 58.9937 59.6637 58.186 58.198 57.3612C57.4861 56.962 56.8972 56.3766 56.4949 55.6682C56.0926 54.9597 55.8922 54.1551 55.9153 53.3414C55.9384 52.5277 56.1841 51.7358 56.6259 51.0512C57.0677 50.3665 57.6888 49.8151 58.4221 49.4565C59.2671 48.9925 60.1465 48.7175 60.1465 47.4459C60.1465 46.6898 60.8535 46.1743 61.7329 46.1571C62.6123 46.1399 63.4573 46.0198 63.8884 47.1883C64.0377 47.7534 64.3576 48.2591 64.8048 48.6372C65.252 49.0152 65.8049 49.2472 66.3888 49.3019C67.6648 49.4566 68.1131 50.1095 67.4579 51.1577C66.8026 52.206 66.9061 53.787 64.992 52.9622C64.0767 52.4938 63.0536 52.2745 62.0261 52.3263C61.7503 52.3306 61.482 52.416 61.2549 52.572C61.0278 52.728 60.8521 52.9475 60.75 53.2028C60.5086 53.8214 61.1811 54.1134 61.6122 54.354C62.9227 55.0585 64.285 55.6772 65.5955 56.3646C66.3873 56.7961 67.0579 57.4186 67.5459 58.1751C68.0339 58.9316 68.3238 59.798 68.389 60.695Z"
            fill="#FCCD36" />
    </g>
    <defs>
        <clipPath id="clip0_3210_1489">
            <rect width="123" height="114" fill="white" transform="translate(0.5)" />
        </clipPath>
    </defs>
</svg>