<svg width="130" height="119" viewBox="0 0 130 119" fill="none" xmlns="http://www.w3.org/2000/svg">
    <g clip-path="url(#clip0_3210_1507)">
        <path
            d="M92.6429 63.3076C92.7326 66.0701 92.2598 68.8218 91.2534 71.394C90.2469 73.9662 88.7281 76.3045 86.7902 78.2655C84.8522 80.2264 82.5359 81.7688 79.9836 82.7976C77.4313 83.8265 74.6967 84.3202 71.9477 84.2485C59.8534 84.0925 51.2058 75.5882 51.0039 63.2452C50.9529 60.439 51.4671 57.6515 52.5154 55.0502C53.5637 52.4489 55.1246 50.0874 57.1043 48.1079C59.0839 46.1284 61.4413 44.5718 64.0348 43.5315C66.6283 42.4913 69.4044 41.9888 72.196 42.0545C83.3277 42.0857 93.2949 51.6668 92.6429 63.3076ZM71.9321 46.1429C62.4306 45.8308 55.2113 54.2727 54.994 62.4962C54.8577 65.8929 55.7354 69.2529 57.5142 72.1443C59.293 75.0357 61.8916 77.3263 64.9759 78.7215C68.0603 80.1167 71.4893 80.5527 74.8221 79.9735C78.155 79.3944 81.2393 77.8265 83.6785 75.4715C86.1178 73.1165 87.8004 70.0821 88.5101 66.7582C89.2198 63.4344 88.9241 59.9732 87.6611 56.8196C86.398 53.666 84.2254 50.9642 81.4224 49.0616C78.6195 47.159 75.3144 46.1425 71.9321 46.1429Z"
            fill="#FCCD36" />
        <path
            d="M17.7799 72.373C9.17889 73.0596 -0.276046 65.4135 0.593373 53.6478C0.829726 49.2589 2.74886 45.1329 5.94774 42.136C9.14661 39.1391 13.3764 37.5045 17.7489 37.5755C28.0267 37.5755 35.1217 44.7846 35.2615 55.0991C35.3234 57.4098 34.9112 59.7085 34.0507 61.8521C33.1902 63.9957 31.8998 65.9383 30.2598 67.5588C28.6198 69.1793 26.6654 70.443 24.5183 71.2713C22.3713 72.0995 20.0775 72.4745 17.7799 72.373ZM18.0594 41.6638C16.2808 41.6201 14.5115 41.9344 12.8556 42.5884C11.1998 43.2424 9.69085 44.2229 8.41773 45.4719C7.1446 46.721 6.13303 48.2136 5.44253 49.8616C4.75202 51.5096 4.39657 53.2797 4.3971 55.0679C4.42154 58.6552 5.85129 62.0884 8.3766 64.6236C10.9019 67.1589 14.3194 68.5921 17.8886 68.6125C21.3792 68.5055 24.7003 67.0755 27.1854 64.6095C29.6705 62.1436 31.1358 58.8242 31.287 55.3176C31.3326 53.5361 31.023 51.7635 30.3765 50.1041C29.73 48.4447 28.7598 46.9321 27.5228 45.6554C26.2858 44.3786 24.8071 43.3637 23.1739 42.6701C21.5407 41.9765 19.7858 41.6184 18.0128 41.6169L18.0594 41.6638Z"
            fill="#28A9DF" />
        <path
            d="M76.2483 14.3251C75.8602 22.9075 70.4729 28.4783 62.2755 28.369C53.6745 28.369 48.6753 23.2975 48.3027 14.2158C48.3027 10.4911 49.7749 6.91909 52.3953 4.28535C55.0157 1.6516 58.5697 0.171875 62.2755 0.171875C65.9814 0.171875 69.5354 1.6516 72.1558 4.28535C74.7762 6.91909 76.2483 10.4911 76.2483 14.2158V14.3251ZM72.1496 14.6371C72.7396 10.1119 68.1286 4.52561 62.3377 4.58802C59.7691 4.62301 57.3144 5.65956 55.4918 7.47898C53.6692 9.2984 52.6211 11.7582 52.5687 14.3396C52.5164 16.9209 53.4638 19.4219 55.2111 21.3145C56.9585 23.2071 59.369 24.3433 61.934 24.4836C67.7405 24.3431 72.1186 20.2235 72.1186 14.6371H72.1496Z"
            fill="#28A9DF" />
        <path
            d="M126.907 90.1938C126.907 92.0473 126.542 93.8826 125.833 95.5936C125.124 97.3046 124.085 98.8576 122.776 100.163C121.467 101.469 119.914 102.501 118.206 103.2C116.498 103.899 114.67 104.252 112.826 104.238C111.006 104.255 109.202 103.904 107.52 103.207C105.838 102.51 104.312 101.48 103.033 100.179C101.755 98.8781 100.749 97.3321 100.076 95.6328C99.4036 93.9336 99.0773 92.1157 99.1169 90.2873C99.0344 88.4329 99.3346 86.5815 99.9987 84.8494C100.663 83.1173 101.676 81.5421 102.976 80.223C104.275 78.9038 105.832 77.8693 107.549 77.1844C109.265 76.4995 111.104 76.1791 112.95 76.2434C114.784 76.2163 116.604 76.5581 118.305 77.2486C120.005 77.9391 121.551 78.9643 122.852 80.2641C124.152 81.5639 125.181 83.112 125.877 84.8172C126.574 86.5225 126.924 88.3505 126.907 90.1938ZM122.809 90.1938C123.383 85.7622 118.803 80.2382 112.95 80.1601C108.292 80.1601 102.921 85.0287 103.06 90.1626C103.177 92.718 104.218 95.1428 105.987 96.9817C107.757 98.8205 110.133 99.9468 112.67 100.149C118.042 100.368 123.352 95.1092 122.809 90.225V90.1938Z"
            fill="#28A9DF" />
        <path
            d="M116.024 45.987C115.03 46.2835 115.325 47.8439 114.316 47.5474C113.148 47.1279 112.139 46.3534 111.428 45.3316C110.978 44.7698 111.428 44.2392 111.677 43.7711C112.55 42.2233 113.817 40.9359 115.347 40.0403C116.877 39.1447 118.616 38.6729 120.386 38.6729C122.157 38.6729 123.896 39.1447 125.426 40.0403C126.956 40.9359 128.222 42.2233 129.096 43.7711C129.422 44.3485 129.81 44.9727 129.096 45.6125C128.382 46.2523 127.544 47.6098 126.286 47.5318C125.401 47.5318 125.836 45.9714 124.842 45.6125C124.283 46.58 125.292 48.0312 124.268 48.7334C122.897 49.4483 121.346 49.7361 119.812 49.5603C116.505 49.4198 116.21 49.1079 116.024 45.987Z"
            fill="#28A9DF" />
        <path
            d="M58.8752 116.394C58.425 118.375 57.7108 118.656 54.2176 118.438C52.6651 118.438 51.718 117.892 52.2148 115.582C51.4386 116.69 51.0971 117.829 49.9637 116.815C48.8304 115.801 48.2248 115.255 49.0632 113.835C50.7555 111.104 53.2861 110.37 56.3291 110.542C57.4625 110.632 58.5565 111.001 59.5148 111.616C60.4731 112.231 61.2665 113.073 61.825 114.069C62.8652 115.629 61.3903 116.003 60.6451 116.815C59.8999 117.626 59.3565 116.955 58.8752 116.394Z"
            fill="#28A9DF" />
        <path
            d="M120.418 37.5445C119.853 37.6076 119.281 37.5515 118.739 37.3796C118.196 37.2077 117.696 36.9239 117.269 36.5464C116.842 36.1689 116.499 35.706 116.26 35.1873C116.022 34.6686 115.894 34.1054 115.884 33.5341C115.884 30.6317 117.794 28.5252 120.262 28.5721C121.441 28.5689 122.576 29.0147 123.441 29.8197C124.305 30.6247 124.834 31.729 124.92 32.9101C124.905 35.953 123.352 37.5445 120.418 37.5445Z"
            fill="#28A9DF" />
        <path
            d="M101.958 45.0508C102.967 45.5969 103.153 46.8142 103.728 47.688C104.163 48.3122 103.526 48.7647 102.936 49.0768C100.095 50.5436 97.2539 51.9948 94.4593 53.524C93.6055 53.9765 92.9068 53.8674 92.7205 53.0091C92.5342 52.1509 90.7798 51.0897 92.2703 50.2003C95.2667 48.3902 98.4804 46.8921 101.585 45.2693L101.958 45.0508Z"
            fill="#28A9DF" />
        <path
            d="M49.0475 58.626C49.0475 59.1722 49.0475 59.7338 49.0475 60.28C49.0692 60.4354 49.0541 60.5938 49.0036 60.7423C48.953 60.8907 48.8683 61.025 48.7564 61.1345C48.6445 61.2439 48.5086 61.3253 48.3595 61.372C48.2105 61.4188 48.0526 61.4297 47.8986 61.4036C44.452 60.9979 41.0209 60.4829 37.5898 59.9836C37.062 59.9836 36.6272 59.5934 36.9222 58.9693C37.1118 58.3164 37.1803 57.634 37.124 56.9562C37.1121 56.7991 37.1385 56.6415 37.201 56.497C37.2635 56.3525 37.3601 56.2255 37.4825 56.1271C37.6049 56.0286 37.7494 55.9617 37.9034 55.9322C38.0574 55.9027 38.2162 55.9113 38.3661 55.9575C41.6109 56.4413 44.8557 56.9094 48.1005 57.518C48.6749 57.5336 49.5443 57.5805 49.0475 58.626Z"
            fill="#28A9DF" />
        <path
            d="M92.5496 74.3867C95.1013 75.9448 97.5587 77.6539 99.9087 79.505C100.623 80.1292 99.0547 81.3307 98.5113 82.2357C98.1543 82.8599 97.4867 82.5946 96.9588 82.2357C95.1113 80.9406 93.2017 79.7234 91.3386 78.4438C90.8884 78.1161 90.0966 77.8976 90.609 77.055C91.0214 76.0152 91.689 75.0973 92.5496 74.3867Z"
            fill="#28A9DF" />
        <path
            d="M52.0442 106.454C52.0867 105.599 52.4507 104.793 53.0625 104.199C53.6743 103.604 54.4881 103.265 55.3391 103.251C56.19 103.238 57.0144 103.549 57.6451 104.124C58.2758 104.698 58.6657 105.492 58.7357 106.344C58.7442 106.806 58.6595 107.265 58.4866 107.693C58.3137 108.121 58.0562 108.51 57.7297 108.835C57.4031 109.16 57.0144 109.416 56.5869 109.586C56.1594 109.756 55.702 109.837 55.2425 109.824C54.7984 109.866 54.3505 109.807 53.9326 109.65C53.5147 109.493 53.1377 109.243 52.8298 108.919C52.5219 108.594 52.2913 108.204 52.1552 107.777C52.0191 107.35 51.9812 106.897 52.0442 106.454Z"
            fill="#28A9DF" />
        <path
            d="M65.458 86.5271C64.7544 89.0618 63.8884 91.5481 62.8653 93.9704C62.8378 94.0949 62.7756 94.2089 62.686 94.2992C62.5964 94.3894 62.4831 94.4521 62.3592 94.4799C62.2354 94.5078 62.1063 94.4996 61.9869 94.4563C61.8676 94.413 61.763 94.3364 61.6854 94.2355C60.9712 93.5646 59.1858 94.1108 59.4342 92.41C59.9948 89.9574 60.8011 87.568 61.8406 85.2787C62.2287 84.2488 63.1292 84.5921 63.8589 84.8729C64.5886 85.1538 65.6909 85.2007 65.458 86.5271Z"
            fill="#28A9DF" />
        <path
            d="M66.6536 40.1664C65.8619 40.3692 65.4271 39.948 65.2563 39.0585C64.8216 36.7803 64.2161 34.502 63.9522 32.2082C63.7193 30.242 65.6755 31.0379 66.5915 30.523C67.5075 30.008 67.6007 30.835 67.7249 31.6308C68.0044 33.6282 68.4391 35.61 68.8427 37.5918C69.2464 39.5735 69.0135 40.182 66.6536 40.1664Z"
            fill="#28A9DF" />
        <path
            d="M77.8782 73.5752C77.8782 73.8873 77.754 74.0434 77.7385 74.215C77.5987 78.0537 76.9932 78.6467 73.0809 78.7403C71.551 78.7845 70.0208 78.6643 68.5164 78.3815C66.6844 78.0538 65.7995 77.258 66.1876 75.2606C66.2501 74.6224 66.2501 73.9793 66.1876 73.3411C65.489 73.6064 65.3803 74.2774 65.1785 74.7924C64.3091 76.821 64.3091 76.8678 62.6478 75.6038C61.9378 74.9993 61.2639 74.3533 60.6296 73.6689C60.378 73.4286 60.2138 73.1105 60.1631 72.7655C60.1125 72.4204 60.1783 72.0681 60.3501 71.765C61.3229 69.8125 62.7824 68.1468 64.5863 66.9298C66.3902 65.7129 68.477 64.9864 70.6434 64.8212C72.6344 64.5803 74.6539 64.8105 76.5408 65.4932C78.4277 66.1759 80.1297 67.2924 81.5111 68.7535L81.8992 69.1592C84.4609 72.2801 84.0107 74.371 80.4399 76.2435C79.617 76.6804 79.3221 76.2437 79.0737 75.6507C78.8253 75.0577 78.6855 74.1682 77.8782 73.5752Z"
            fill="#FCCD36" />
        <path
            d="M77.7384 57.4714C77.7426 59.0235 77.1363 60.5145 76.0516 61.6193C74.9669 62.7242 73.4917 63.3532 71.9475 63.3697C70.385 63.3092 68.9064 62.6437 67.8212 61.5123C66.7359 60.3808 66.1283 58.8713 66.1255 57.2997C66.1367 56.5334 66.298 55.7766 66.6001 55.0728C66.9023 54.3691 67.3394 53.732 67.8865 53.1981C68.4336 52.6641 69.08 52.2438 69.7888 51.9609C70.4975 51.678 71.2548 51.5382 72.0173 51.5495C72.7798 51.5607 73.5327 51.7229 74.2329 52.0266C74.9331 52.3303 75.5669 52.7695 76.0981 53.3194C76.6294 53.8693 77.0477 54.5191 77.3291 55.2315C77.6105 55.9439 77.7496 56.705 77.7384 57.4714Z"
            fill="#FCCD36" />
        <path
            d="M22.4371 63.5884C21.9558 64.5246 22.9028 65.8354 21.785 66.366C20.0396 67.1789 18.0826 67.4139 16.1959 67.037C13.3858 66.5065 13.4013 66.4441 13.2926 63.7445C13.1944 63.737 13.0959 63.737 12.9977 63.7445C12.3146 64.1034 12.7648 66.0383 11.3675 65.2113C8.79029 63.6508 8.41769 62.6677 9.39579 61.1073C12.9045 55.5678 19.3941 54.8656 24.5485 58.7667C25.3465 59.5321 26.0082 60.4293 26.5047 61.4193C26.7327 61.7178 26.8458 62.0892 26.8229 62.4649C26.8001 62.8405 26.643 63.1952 26.3805 63.4636C25.6042 64.119 24.9211 65.024 23.8499 65.1644C22.7786 65.3048 23.2444 63.9316 22.4371 63.5884Z"
            fill="#28A9DF" />
        <path
            d="M17.7796 55.1465C17.1967 55.2109 16.6069 55.1469 16.0512 54.9589C15.4954 54.771 14.9871 54.4636 14.5616 54.0581C14.136 53.6527 13.8035 53.1589 13.587 52.6112C13.3706 52.0635 13.2755 51.4748 13.3083 50.8864C13.2743 50.2811 13.3642 49.6755 13.5725 49.1065C13.7807 48.5376 14.1029 48.0175 14.5191 47.5787C14.9353 47.1399 15.4367 46.7917 15.9921 46.5554C16.5476 46.3191 17.1454 46.1999 17.7486 46.2051C18.3679 46.1495 18.9918 46.2337 19.5747 46.4514C20.1575 46.6691 20.6846 47.015 21.1176 47.4636C21.5505 47.9122 21.8784 48.4522 22.0771 49.0444C22.2759 49.6366 22.3406 50.2659 22.2664 50.8864C22.308 51.4784 22.2183 52.0724 22.0038 52.6253C21.7893 53.1782 21.4554 53.6763 21.0262 54.0838C20.597 54.4914 20.0831 54.798 19.5217 54.9818C18.9603 55.1655 18.3653 55.2219 17.7796 55.1465Z"
            fill="#28A9DF" />
        <path
            d="M61.3281 15.4023C64.7903 15.4023 66.8707 16.2918 68.3456 18.5232C68.8424 19.2878 69.0908 20.0837 68.5009 20.7079C67.9109 21.332 67.647 22.7989 66.2652 21.769C65.9858 21.5506 65.9547 21.7691 65.7994 22.0031C64.8615 22.9304 63.5986 23.45 62.283 23.45C60.9674 23.45 59.7044 22.9304 58.7665 22.0031C58.4404 21.5662 58.5336 21.8471 58.2696 22.0031C56.95 22.5805 56.5308 21.2229 55.8011 20.6456C55.0714 20.0682 55.677 19.319 56.0806 18.7261C56.6151 17.7804 57.3739 16.9822 58.2894 16.4024C59.2048 15.8225 60.2487 15.4789 61.3281 15.4023Z"
            fill="#28A9DF" />
        <path
            d="M62.1823 14.7156C61.5344 14.6611 60.9162 14.4185 60.403 14.0173C59.8898 13.6161 59.5037 13.0735 59.2917 12.4557C59.0797 11.8379 59.0509 11.1717 59.2089 10.5378C59.3669 9.90385 59.7049 9.32967 60.1816 8.88532C60.6584 8.44096 61.2533 8.14564 61.8941 8.035C62.5349 7.92436 63.1939 8.00327 63.7908 8.26225C64.3878 8.52122 64.897 8.94896 65.2564 9.49353C65.6158 10.0381 65.81 10.6759 65.8152 11.3294C65.8034 11.7932 65.6993 12.25 65.5093 12.6729C65.3192 13.0957 65.0469 13.4761 64.7084 13.7916C64.3699 14.1071 63.972 14.3514 63.5382 14.5101C63.1044 14.6688 62.6434 14.7386 62.1823 14.7156Z"
            fill="#28A9DF" />
        <path
            d="M116.567 96.5442C116.567 98.448 115.62 99.0566 114.316 98.9317C112.562 98.7601 110.357 99.8836 109.317 97.3713C108.851 97.6366 108.479 98.0423 107.765 97.5898C105.886 96.3102 105.777 95.53 107.314 93.6575C108.089 92.7399 109.071 92.0224 110.178 91.5652C111.285 91.108 112.485 90.9245 113.677 91.0299C114.87 91.1354 116.02 91.527 117.03 92.1715C118.041 92.816 118.883 93.6949 119.486 94.7343C119.619 94.9092 119.711 95.1126 119.753 95.3288C119.796 95.5449 119.788 95.7679 119.731 95.9806C119.674 96.1933 119.569 96.3901 119.424 96.5555C119.28 96.7209 119.099 96.8504 118.896 96.9343C118.26 97.3244 117.421 98.7288 116.567 96.5442Z"
            fill="#28A9DF" />
        <path
            d="M112.919 90.3494C112.03 90.3494 111.177 89.9942 110.548 89.3621C109.919 88.73 109.565 87.8727 109.565 86.9788C109.565 86.0849 109.919 85.2276 110.548 84.5955C111.177 83.9634 112.03 83.6084 112.919 83.6084C113.808 83.6084 114.661 83.9634 115.29 84.5955C115.919 85.2276 116.272 86.0849 116.272 86.9788C116.272 87.8727 115.919 88.73 115.29 89.3621C114.661 89.9942 113.808 90.3494 112.919 90.3494Z"
            fill="#28A9DF" />
    </g>
    <defs>
        <clipPath id="clip0_3210_1507">
            <rect width="129" height="118" fill="white" transform="translate(0.5 0.5)" />
        </clipPath>
    </defs>
</svg>