<svg width="89" height="112" viewBox="0 0 89 112" fill="none" xmlns="http://www.w3.org/2000/svg">
    <g clip-path="url(#clip0_3208_1471)">
        <path
            d="M0.550476 55.8429C0.550476 40.5081 0.632413 25.1734 0.500035 9.83858C0.493279 7.38313 1.46334 5.02474 3.19836 3.27851C4.93337 1.53228 7.29238 0.540085 9.76021 0.518555C32.9453 0.614724 56.1325 0.614724 79.3218 0.518555C83.8731 0.518555 88.5063 4.60155 88.5063 9.60652C88.5063 40.4057 88.5063 71.2091 88.5063 102.017C88.5063 107.517 84.453 111.512 78.8931 111.519C55.8341 111.519 32.7793 111.519 9.7287 111.519C8.51389 111.52 7.31087 111.282 6.18978 110.816C5.06868 110.35 4.05193 109.668 3.19882 108.807C2.3457 107.947 1.67327 106.926 1.22075 105.804C0.768223 104.682 0.544649 103.482 0.563057 102.274C0.550449 86.7905 0.546273 71.3136 0.550476 55.8429ZM9.82954 54.6826C9.82954 68.8132 9.82954 82.9375 9.79172 97.0681C9.79172 98.6298 10.1825 99.0814 11.79 99.0751C33.4916 99.0207 55.1975 99.0207 76.9075 99.0751C78.6032 99.0751 79.2588 98.6925 79.2588 96.8549C79.2041 68.8613 79.2041 40.8719 79.2588 12.8867C79.2588 11.1619 78.8049 10.5724 76.9957 10.5786C55.2941 10.6372 33.5883 10.6372 11.8783 10.5786C10.151 10.5786 9.79173 11.0867 9.79803 12.7111C9.85476 26.6974 9.82954 40.69 9.82954 54.6826ZM41.2978 105.309C41.2978 106.909 43.1006 108.696 44.6198 108.621C46.139 108.546 47.7717 106.777 47.7717 105.253C47.7717 103.729 45.9184 101.785 44.437 101.86C44 101.871 43.5699 101.971 43.1726 102.153C42.7754 102.334 42.4193 102.594 42.1259 102.917C41.8325 103.239 41.6078 103.617 41.4654 104.029C41.3231 104.44 41.2661 104.876 41.2978 105.309Z"
            fill="#28A9DF" />
        <path
            d="M55.336 33.9234C50.3687 33.9234 45.4014 33.8858 40.4403 33.9234C39.1796 33.9234 38.8266 33.5722 38.8518 32.3366C38.9527 27.5763 38.3979 28.2975 42.924 28.2787C51.7492 28.2473 60.6375 28.3226 69.4942 28.2285C71.3853 28.2285 72.2741 28.7491 71.959 30.6996C71.9495 30.8333 71.9495 30.9674 71.959 31.1011C71.9022 34.3311 72.3876 33.8732 69.2232 33.8921C64.5899 33.9422 59.963 33.9234 55.336 33.9234Z"
            fill="#28A9DF" />
        <path
            d="M55.3738 81.7521C50.4001 81.7521 45.4328 81.7207 40.4592 81.7521C39.2425 81.7521 38.8202 81.451 38.8517 80.1841C38.9526 75.4049 38.3978 76.1262 42.9176 76.1137C51.7869 76.1137 60.6563 76.1513 69.5256 76.0635C71.4167 76.0635 72.003 76.6907 71.9841 78.4656C71.9526 81.727 71.9841 81.727 68.6809 81.727L55.3738 81.7521Z"
            fill="#28A9DF" />
        <path
            d="M55.5125 52.4122C60.4105 52.4122 65.3148 52.4436 70.2128 52.4122C71.4168 52.4122 72.0093 52.5753 71.9967 54.0116C71.9967 57.4423 71.8454 57.6556 68.3657 57.6556C59.238 57.6556 50.085 57.6179 40.9761 57.6932C39.3497 57.6932 38.5681 57.3482 38.8706 55.6297C38.8912 55.4211 38.8912 55.2111 38.8706 55.0025C38.9148 52.0547 38.5113 52.4248 41.3921 52.4122C46.1136 52.3997 50.8099 52.4122 55.5125 52.4122Z"
            fill="#28A9DF" />
        <path
            d="M34.4394 73.4483C34.3953 74.1319 33.954 74.3828 33.6325 74.7026C30.6067 77.732 27.5494 80.7299 24.5426 83.7906C23.7357 84.6122 23.1179 84.838 22.2354 83.8847C20.9179 82.4672 19.5248 81.1062 18.1128 79.7766C17.2618 78.9738 17.3689 78.3278 18.1947 77.6253C18.6463 77.2396 19.0678 76.8203 19.4555 76.3709C20.5019 75.1793 21.4916 74.1068 22.6767 76.2706C23.2062 77.2428 23.7042 76.5842 24.1769 76.1138C26.0176 74.2636 27.9592 72.4761 29.699 70.5569C30.5752 69.6098 31.1363 69.6537 31.9053 70.6008C32.4916 71.3221 33.2291 71.9242 33.8784 72.5952C34.1873 72.8587 34.5466 73.1033 34.4394 73.4483Z"
            fill="#FCCD36" />
        <path
            d="M23.2186 36.7388C21.5292 35.0078 19.8776 33.2579 18.1441 31.5896C17.4444 30.9122 17.4129 30.4418 18.1441 29.8209C18.5373 29.4697 18.8752 29.0617 19.1464 28.6105C20.4071 26.7289 20.8673 26.6473 22.4432 28.2718C23.2249 29.0808 23.641 28.899 24.2776 28.1777C26.1057 26.1644 28.0157 24.2138 29.8375 22.188C30.5498 21.404 31.0982 21.3538 31.7286 22.188C32.359 23.0222 33.2415 24.0257 34.0421 24.9038C34.1743 25.0104 34.2778 25.1481 34.3434 25.3044C34.4089 25.4607 34.4343 25.6307 34.4175 25.7992C34.4006 25.9678 34.3419 26.1295 34.2467 26.2698C34.1514 26.4102 34.0227 26.5248 33.8719 26.6034C30.0077 29.5701 27.0071 33.4586 23.2186 36.7388Z"
            fill="#FCCD36" />
        <path
            d="M17.293 54.5695C18.0809 53.8796 18.7617 53.3152 19.3858 52.7319C21.5165 50.6308 21.5102 50.6245 23.2815 53.1019C25.803 51.3082 27.4294 48.7116 29.5852 46.5478C30.6127 45.5255 31.2179 45.5443 32.1067 46.6043C32.9955 47.6642 34.4643 48.4419 34.6849 49.5457C34.9308 50.8001 33.0333 51.1827 32.1634 52.0545C29.5978 54.6824 26.9377 57.2288 24.3783 59.8693C23.6345 60.6407 23.2311 60.8101 22.4053 59.932C20.7411 58.1885 19.4425 56.1626 17.293 54.5695Z"
            fill="#FCCD36" />
    </g>
    <defs>
        <clipPath id="clip0_3208_1471">
            <rect width="88" height="111" fill="white" transform="translate(0.5 0.5)" />
        </clipPath>
    </defs>
</svg>