<svg width="135" height="111" viewBox="0 0 135 111" fill="none" xmlns="http://www.w3.org/2000/svg">
    <g clip-path="url(#clip0_3211_1535)">
        <path
            d="M67.3273 95.9944C61.6386 88.2564 56.0485 80.7364 50.5501 73.139C46.764 68.0119 43.2669 62.6785 40.0748 57.1635C37.2104 52.1164 36.163 46.2429 37.107 40.5195C37.8156 35.2192 39.9305 30.2042 43.2329 25.9931C47.963 20.0348 53.9689 15.8985 61.6104 14.5619C70.6123 12.9932 79.0363 14.5619 86.3252 20.1896C92.4139 24.7808 96.5042 31.5293 97.7521 39.0423C99.4298 48.3632 96.6807 56.5023 91.4501 64.0574C85.8106 72.1824 79.72 79.9415 73.6999 87.764C71.6063 90.4723 69.5056 93.1806 67.3273 95.9944ZM84.9506 44.3465C85.4229 35.5743 77.8097 27.1046 67.9054 27.0976C58.0012 27.0906 50.3668 34.3503 50.2822 44.5082C50.1835 53.808 57.9095 61.4897 67.123 61.8766C76.8792 62.2917 85.43 53.6532 84.9436 44.3465H84.9506Z"
            fill="#28A9DF" />
        <path
            d="M103.539 0.949979C112.703 0.471626 119.985 3.7639 125.928 9.82772C131.356 15.3499 134.176 22.089 134.479 30.0452C134.803 38.6836 131.342 45.7534 126.506 52.373C119.457 62.0455 112.189 71.5704 105.111 81.2148C104.251 82.3896 104.061 82.2771 103.293 81.2571C100.332 77.3458 97.2796 73.519 94.2766 69.6288C93.8137 69.0476 93.5244 68.3477 93.4421 67.6098C93.3598 66.8719 93.4878 66.126 93.8113 65.4574C96.0037 60.0407 98.9291 54.9828 101.453 49.7209C102.376 47.8005 104.273 48.525 105.732 48.2506C114.48 46.5834 119.555 42.6933 121.015 34.0408C122.601 24.6847 117.342 16.7426 108.044 14.1328C103.004 12.7259 98.3229 14.2807 94.2766 17.0875C91.2948 19.1556 88.9614 19.5918 86.1276 17.0875C84.6354 15.9227 83.0211 14.9226 81.313 14.1048C80.1569 13.4647 80.1146 12.6978 80.7702 11.7482C83.0973 8.18757 86.3902 5.36002 90.2655 3.59499C94.5938 1.71676 99.1265 0.436454 103.539 0.949979Z"
            fill="#28A9DF" />
        <path
            d="M0.549342 31.2482C1.25427 16.7639 9.40328 5.13574 23.9671 1.51996C36.2258 -1.51898 46.8068 2.32186 55.2307 11.8537C55.9356 12.6276 55.7734 13.0426 55.0756 13.4858C52.0514 15.3852 49.0132 17.2564 45.982 19.1135C45.0092 19.7185 44.3325 19.1979 43.5923 18.5859C39.7575 15.3992 35.4574 13.2537 30.3396 13.7039C22.4515 14.4074 14.7184 20.6331 14.1262 29.2364C13.7597 34.8641 15.2542 39.6967 19.2723 43.6783C21.9721 46.3514 25.4827 47.4066 29.0708 48.1312C30.1564 48.3563 31.2279 48.8346 32.398 48.6166C33.2651 48.4759 33.6105 49.1021 33.9347 49.7844C36.3245 54.793 38.975 59.6328 41.266 64.7188C42.3587 67.1247 41.6538 68.9395 40.3285 70.7474C37.9529 73.9551 35.4645 77.0787 33.0043 80.2231C31.7988 81.7707 31.0234 81.7918 29.8533 80.2231C21.7607 69.4039 13.2451 58.9083 5.75168 47.6529C2.93196 43.4321 1.05689 38.916 0.944101 33.7737C0.95115 32.8803 0.316716 32.0572 0.549342 31.2482Z"
            fill="#28A9DF" />
        <path
            d="M68.1027 110.402C52.9255 110.683 39.0666 108.657 25.6659 104C19.6317 101.89 13.95 99.0763 9.39614 94.356C8.25456 93.2214 7.34874 91.8731 6.73067 90.3883C6.1126 88.9034 5.79443 87.3113 5.79443 85.7035C5.79443 84.0956 6.1126 82.5037 6.73067 81.0188C7.34874 79.534 8.25456 78.1857 9.39614 77.051C11.7929 74.6882 14.4676 72.6238 17.3618 70.9028C17.4887 70.7876 17.6403 70.7029 17.8051 70.6553C17.9698 70.6078 18.1433 70.5986 18.3122 70.6285C18.4811 70.6584 18.6409 70.7266 18.7792 70.8278C18.9175 70.929 19.0307 71.0606 19.11 71.2123C19.8714 72.3027 20.6398 73.379 21.4645 74.4131C22.2893 75.4472 21.9368 75.8693 20.9499 76.3687C18.5277 77.6565 16.3438 79.348 14.4928 81.3702C11.095 84.9579 12.378 88.6651 15.4233 91.2186C21.5985 96.375 29.1623 98.408 36.7756 100.202C44.516 102.067 52.4068 103.244 60.3555 103.719C64.0282 103.923 67.7079 104.141 71.3594 103.986C82.1066 103.593 92.7702 101.941 103.131 99.0622C109.158 97.3598 114.959 95.3338 119.873 91.3241C123.397 88.454 123.975 84.5991 120.916 81.3843C118.946 79.388 116.694 77.689 114.233 76.3405C113.472 75.9044 112.823 75.3837 113.909 74.4904C114.434 74.0264 114.861 73.462 115.164 72.8303C116.376 70.3893 117.772 70.6425 119.802 72.0635C124.159 75.1235 128.304 78.2047 129.424 83.8886C130.228 87.9758 128.79 91.3382 126.139 94.2083C120.768 100.04 113.81 103.121 106.401 105.421C99.5707 107.532 92.5566 108.629 85.5356 109.537C79.4097 110.233 73.2698 110.754 68.1027 110.402Z"
            fill="#FCCD36" />
    </g>
    <defs>
        <clipPath id="clip0_3211_1535">
            <rect width="134" height="110" fill="white" transform="translate(0.5 0.5)" />
        </clipPath>
    </defs>
</svg>