<svg width="101" height="128" viewBox="0 0 101 128" fill="none" xmlns="http://www.w3.org/2000/svg">
    <g clip-path="url(#clip0_3208_1465)">
        <path
            d="M13.9403 9.24219C13.9403 13.7027 13.9871 17.9997 13.9111 22.3026C13.9111 23.5812 14.209 24.0074 15.5525 23.9957C22.9006 23.9334 30.2507 23.9334 37.6027 23.9957C38.952 23.9957 39.4368 23.7155 39.3959 22.2442C39.2908 18.4434 39.396 14.6543 39.3317 10.8419C39.3025 9.35311 39.9158 9.14295 41.1249 9.47574C43.5256 10.1355 44.8808 12.0504 44.9625 15.0689C45.0054 16.7503 45.0054 18.4337 44.9625 20.119C44.8924 22.9682 45.9263 25.1575 48.6424 26.3311C51.6623 27.6388 52.7604 30.3245 52.7312 33.197C52.6962 42.5383 53.3153 51.8796 53.2102 61.186C53.0759 73.4465 53.2102 85.7421 53.146 98.0201C53.146 100.029 52.9649 102.06 51.9485 103.923C51.3196 105.201 50.3395 106.273 49.123 107.014C47.9065 107.756 46.5039 108.135 45.0794 108.109C33.0642 108.179 21.0431 108.109 9.02211 108.15C3.98707 108.15 0.844545 103.829 0.739405 99.8475C0.213704 79.9971 0.610899 60.1468 0.482394 40.2555C0.482394 37.3363 0.786145 34.4171 0.91465 31.5388C1.05484 28.3803 3.1518 26.3894 6.11324 25.4961C8.04666 24.9123 8.77096 23.7447 8.7067 21.7946C8.63077 19.5527 8.7067 17.3049 8.7067 15.063C8.74759 12.2431 10.3188 9.37647 13.9403 9.24219ZM26.7908 56.5328C32.0829 56.5328 37.3808 56.4978 42.6728 56.5328C43.841 56.5328 44.285 56.2526 44.2733 54.9915C44.2071 49.2505 44.2071 43.5133 44.2733 37.78C44.2733 36.4547 43.7593 36.2796 42.6319 36.2854C32.1179 36.3146 21.6039 36.3321 11.049 36.2854C9.65295 36.2854 9.44268 36.8108 9.45437 38.0369C9.50694 43.5833 9.52446 49.1298 9.45437 54.682C9.45437 56.1066 9.75811 56.6029 11.2826 56.5737C16.4462 56.4569 21.6156 56.5211 26.7908 56.5211V56.5328ZM27.0887 64.3912C22.9357 64.3912 22.9357 64.3912 22.9357 68.5598C22.9357 72.6467 22.9357 72.6467 27.0245 72.6467C31.1132 72.6467 31.1775 72.6467 31.1775 68.4781C31.16 64.3795 31.16 64.3795 27.0887 64.3795V64.3912ZM44.2441 68.6591C44.2441 64.3913 44.2441 64.3912 40.0034 64.3912C36.0198 64.3912 36.0198 64.3912 36.0198 68.3496C36.0198 72.6175 36.0198 72.6174 40.2604 72.6174C44.2441 72.6058 44.2441 72.6058 44.2441 68.6357V68.6591ZM17.702 80.6277C17.702 76.3599 17.702 76.3598 13.4614 76.3598C9.47772 76.3598 9.47772 76.3599 9.47772 80.3299C9.47772 84.5919 9.47772 84.5919 13.7184 84.5919C17.702 84.5802 17.702 84.5803 17.702 80.616V80.6277ZM22.5618 92.3044C22.5618 96.5839 22.5618 96.5839 26.7908 96.5839C30.7861 96.5839 30.7861 96.5839 30.7861 92.6313C30.7861 88.3518 30.7861 88.3518 26.5572 88.3518C22.5618 88.3226 22.5618 88.3226 22.5618 92.2752V92.3044ZM17.3048 68.589C17.3048 64.4088 17.3048 64.4088 13.7301 64.4088C9.45437 64.4088 9.45437 64.4087 9.45437 68.8284C9.45437 72.635 9.45437 72.635 13.2161 72.635C17.3282 72.6058 17.3282 72.6058 17.3282 68.5598L17.3048 68.589ZM36.3702 80.3591V80.9429C36.3702 84.6328 36.3703 84.6328 40.0618 84.6328C44.2207 84.6328 44.2207 84.6328 44.2207 80.4701C44.2207 76.3832 44.2207 76.3832 40.3422 76.3832C36.3936 76.3482 36.3936 76.3482 36.3936 80.3124L36.3702 80.3591ZM27.0245 84.6094C31.16 84.6094 31.16 84.6095 31.16 80.9897C31.16 76.751 31.16 76.751 26.6974 76.751C22.9357 76.751 22.9357 76.7511 22.9357 80.5635C22.9357 84.5803 22.9357 84.5803 27.0245 84.5803V84.6094ZM17.3282 92.4678C17.3282 88.381 17.3282 88.381 13.6833 88.381C9.47773 88.381 9.47772 88.381 9.47772 92.8707C9.47772 96.6131 9.47773 96.6131 13.3095 96.6131C17.3282 96.5547 17.3282 96.5547 17.3282 92.4387V92.4678ZM39.9509 96.5547H40.3247C44.2441 96.5547 44.2441 96.5547 44.2441 92.7189C44.2441 88.6963 44.2441 88.6963 39.945 88.6963C36.0198 88.6963 36.0198 88.6963 36.0198 92.5379C36.0198 96.5547 36.0198 96.5547 39.9509 96.5547Z"
            fill="#28A9DF" />
        <path
            d="M55.0853 72.0448C55.0853 62.4991 55.0853 52.9592 55.0561 43.4369C55.0561 42.0649 55.2722 41.5102 56.8435 41.5277C64.0689 41.6212 71.3002 41.5628 78.5257 41.5745C81.7325 41.5745 83.1227 42.9757 83.1227 46.1517C83.1227 59.685 83.0584 73.2184 83.1752 86.7458C83.1752 89.4373 82.2932 91.6617 81.09 93.8861C80.5935 94.8027 79.9217 95.6026 79.4194 96.5251C79.1098 97.1089 78.736 97.4125 78.1168 97.3015C77.8148 97.2993 77.5209 97.2038 77.2752 97.0283C77.0295 96.8527 76.844 96.6056 76.7442 96.3207C75.4007 92.3331 73.7068 88.4623 72.6554 84.3754C72.0129 81.8591 67.8832 79.6639 66.2827 79.7515C64.5304 79.8449 62.2465 82.624 62.1939 84.8659C62.1544 89.9293 62.5197 94.9877 63.2862 99.993C63.6075 102.229 63.3914 102.609 61.125 102.544C59.1566 102.486 56.528 103.408 55.4065 102.159C54.4311 101.067 55.0853 98.4867 55.0794 96.5659C55.0756 88.3844 55.0775 80.2107 55.0853 72.0448ZM72.1647 53.3154H72.2816C72.2816 52.0135 72.2523 50.7057 72.2816 49.3979C72.2816 48.6506 72.1238 48.2302 71.2594 48.2769C69.3396 48.3197 67.4139 48.3197 65.4825 48.2769C64.6764 48.2769 64.3902 48.5338 64.4077 49.3453C64.4486 51.2136 64.4077 53.0761 64.4077 54.9443C64.4077 58.0153 64.4077 58.062 67.5619 57.9978C69.0865 57.9627 71.1192 58.7101 71.9895 57.6416C72.7372 56.7542 72.1647 54.7984 72.1647 53.3154Z"
            fill="#FCCD36" />
        <path
            d="M84.6181 72.7866C85.4709 72.5881 85.7863 73.1194 86.1193 73.3705C91.3763 77.8952 96.4113 82.6184 99.8109 88.7837C100.827 90.6345 100.494 92.7305 100.226 94.6221C99.2618 101.628 98.0585 108.564 96.9546 115.529C96.4522 118.676 96.1134 121.858 95.4417 124.964C94.9394 127.299 93.777 127.947 91.423 127.947C86.5632 127.947 81.7092 127.947 76.8494 127.947C76.4013 128.002 75.9469 127.92 75.5464 127.712C75.146 127.503 74.8182 127.178 74.6064 126.78C69.9548 119.38 66.8548 111.113 65.4943 102.48C64.6999 97.3194 64.4546 92.0883 63.3506 86.9739C62.9709 85.2224 64.7233 82.887 66.5691 82.3557C68.4148 81.8244 70.3307 82.9395 71.1894 84.8312C72.7782 88.3342 73.374 92.2692 75.2782 95.6846C75.8623 96.7589 76.5398 97.7923 77.1882 98.8315C77.4569 99.2694 77.6847 99.6372 78.3564 99.2519C81.7676 97.2668 85.6345 89.8755 84.9511 85.9871C84.5597 83.7452 84.7233 81.5325 84.659 79.3081C84.5948 77.0837 84.6181 74.9994 84.6181 72.7866Z"
            fill="#28A9DF" />
        <path
            d="M15.8331 11.2272C15.8331 7.92267 15.8623 4.61816 15.8331 1.30198C15.8331 0.362002 16.0726 -0.0174908 17.0889 -0.0116525C23.5025 0.0311621 29.918 0.0311621 36.3354 -0.0116525C37.3926 -0.0116525 37.5504 0.443702 37.5445 1.33697C37.5212 7.95377 37.5212 14.5706 37.5445 21.1874C37.5445 22.1273 37.305 22.5068 36.2887 22.501C29.8751 22.4582 23.4596 22.4582 17.0422 22.501C15.9908 22.501 15.8214 22.0456 15.8331 21.1524C15.8564 17.842 15.8331 14.5317 15.8331 11.2272ZM24.7466 7.5023C26.499 7.5023 28.2513 7.44392 29.9744 7.5023C31.6976 7.56068 31.1135 6.39299 31.1427 5.58146C31.1719 4.76993 31.5165 3.67819 29.9102 3.71906C26.4873 3.80664 23.0585 3.78912 19.6356 3.71906C17.9826 3.71906 18.4966 4.82831 18.4674 5.64567C18.4382 6.46304 18.0877 7.59571 19.7057 7.5023C21.3237 7.40889 23.0644 7.5023 24.7466 7.5023ZM23.3039 18.7294C24.4849 18.6681 25.6684 18.6681 26.8494 18.7294C28.4265 18.8871 28.1987 17.8478 28.1578 16.937C28.1169 16.0262 28.6193 14.8586 26.867 14.9404C24.5655 15.0454 22.2583 15.0338 19.9569 14.9404C18.6777 14.8878 18.4557 15.3899 18.409 16.5517C18.3389 18.1573 18.6718 19.0155 20.506 18.7353C21.4313 18.6641 22.3607 18.6621 23.2863 18.7294H23.3039ZM21.8144 13.1129C22.1874 13.0779 22.5629 13.0779 22.9359 13.1129C24.9277 13.5041 25.3775 12.5291 25.2198 10.7776C25.1321 9.79676 24.9919 9.29463 23.8646 9.35886C22.4394 9.44643 21.0025 9.35886 19.5714 9.35886C19.0924 9.35886 18.631 9.28878 18.444 10.0011C17.8891 12.1788 18.5141 13.0896 20.6929 13.0896L21.8144 13.1129ZM32.3284 5.63399C32.0071 6.92426 32.3284 7.57235 33.9698 7.56651C35.4592 7.56651 35.7221 7.02936 35.6754 5.71573C35.6286 4.4021 35.6754 3.63146 33.923 3.69569C32.5036 3.75407 32.048 4.19191 32.3342 5.63399H32.3284ZM35.5877 11.268C35.8856 10.0069 35.6403 9.28882 33.9698 9.31218C32.5153 9.31218 32.1765 9.79677 32.2174 11.1454C32.2758 12.3656 32.2174 13.2531 33.9289 13.1772C35.3775 13.1129 35.9149 12.7334 35.5936 11.268H35.5877ZM35.5877 16.867C35.8973 15.5942 35.5877 14.9112 33.9581 14.9287C32.4861 14.9287 32.2057 15.4308 32.2408 16.7678C32.2875 17.9997 32.2408 18.8637 33.9931 18.7878C35.4008 18.7294 35.9032 18.3207 35.5936 16.867H35.5877Z"
            fill="#28A9DF" />
    </g>
    <defs>
        <clipPath id="clip0_3208_1465">
            <rect width="100" height="128" fill="white" transform="translate(0.5)" />
        </clipPath>
    </defs>
</svg>