<svg width="97" height="107" viewBox="0 0 97 107" fill="none" xmlns="http://www.w3.org/2000/svg">
    <g clip-path="url(#clip0_3210_1495)">
        <path
            d="M0.541049 41.5392C0.541049 29.919 0.623594 18.3535 0.541049 6.69242C0.510877 5.88291 0.647862 5.07578 0.943597 4.32063C1.23933 3.56549 1.68756 2.87822 2.26082 2.30097C2.83409 1.72371 3.52029 1.26867 4.2773 0.963735C5.03432 0.658805 5.84619 0.510429 6.66312 0.527703C27.1251 0.527703 47.5872 0.527703 68.0492 0.527703C68.8806 0.489774 69.7108 0.625663 70.4857 0.926775C71.2606 1.22789 71.9628 1.6874 72.5468 2.27533C73.1308 2.86325 73.5834 3.56652 73.8751 4.33928C74.1668 5.11204 74.2912 5.93697 74.2401 6.76052C73.9925 9.2564 74.2401 11.7796 74.1713 14.2891C74.1713 15.2847 74.4327 15.5848 75.4646 15.653C78.2187 15.4951 80.9816 15.5863 83.7191 15.9257C85.0388 16.114 86.2447 16.7709 87.1126 17.7744C87.9805 18.7778 88.4515 20.0594 88.4379 21.3812V52.6275C88.4379 54.4687 87.7638 55.1233 85.8652 55.1506C83.9667 55.1779 83.1137 54.496 83.1137 52.6002C83.1137 42.7258 83.1137 32.8514 83.1137 22.977C83.1137 21.6131 82.7835 20.9993 81.284 21.0948C79.4148 21.2107 77.5401 21.2107 75.6709 21.0948C74.3639 21.013 74.1438 21.5177 74.1576 22.6769C74.1576 32.6059 74.1576 42.5349 74.1576 52.4638C74.1576 54.4824 73.5797 55.0961 71.5986 55.1916C71.2294 55.2227 70.8578 55.1735 70.5097 55.0474C70.1616 54.9213 69.8455 54.7215 69.5834 54.4617C69.3214 54.2019 69.1198 53.8884 68.9926 53.5433C68.8654 53.1983 68.8158 52.8299 68.8471 52.4638C68.8471 47.4993 68.8471 42.5348 68.8471 37.5703C68.8471 36.5201 68.572 36.2064 67.4714 36.2064C47.3487 36.2064 27.2214 36.2064 7.0896 36.2064C6.09906 36.2064 5.71385 36.452 5.71385 37.4749C5.71385 50.2044 5.71385 62.9338 5.71385 75.6633C5.71385 77.259 6.70439 77.1908 7.77748 77.1908H42.7629C43.1168 77.1495 43.4756 77.1894 43.8115 77.3075C44.1473 77.4256 44.4513 77.6187 44.7 77.8717C44.9486 78.1248 45.1352 78.4313 45.2454 78.7673C45.3556 79.1033 45.3865 79.4598 45.3355 79.8095C45.3538 80.1599 45.297 80.51 45.1688 80.8371C45.0406 81.1641 44.8439 81.4605 44.5917 81.7066C44.3395 81.9528 44.0375 82.1432 43.7057 82.2652C43.3738 82.3872 43.0197 82.438 42.6666 82.4144C35.6365 82.4144 28.5926 82.4144 21.5488 82.4144C20.2831 82.4144 19.8153 82.7009 19.8841 84.0238C20.0011 86.0953 20.0011 88.1715 19.8841 90.243C19.7878 91.7841 20.2556 92.3161 21.8927 92.3024C28.7715 92.2206 35.6502 92.3024 42.529 92.3024C44.3863 92.3024 45.0054 93.0253 45.0054 95.0302C45.0054 96.7896 44.3175 97.4852 42.5428 97.4852C35.2238 97.4852 27.9047 97.4034 20.5995 97.4852C19.7716 97.5018 18.9488 97.3528 18.1803 97.0472C17.4117 96.7415 16.7132 96.2855 16.1263 95.7063C15.5395 95.1271 15.0764 94.4365 14.7648 93.676C14.4531 92.9154 14.2992 92.1004 14.3123 91.2795C14.3123 88.7155 14.3123 86.1514 14.3123 83.5873C14.3123 82.6598 14.0509 82.3463 13.1017 82.3736C10.9005 82.3736 8.69926 82.3736 6.51181 82.3736C5.70436 82.4358 4.89284 82.3253 4.1322 82.0496C3.37157 81.7739 2.67953 81.3393 2.10296 80.7755C1.52639 80.2116 1.07873 79.5317 0.790269 78.7814C0.501805 78.0312 0.379268 77.2282 0.430965 76.427L0.541049 41.5392ZM37.3012 31.2829C47.3029 31.2829 57.3046 31.2829 67.3063 31.2829C68.5032 31.2829 68.9159 31.0511 68.9022 29.7827C68.8288 22.5087 68.8288 15.203 68.9022 7.86533C68.9022 6.40599 68.4207 6.03763 67.0036 6.03763C47.1653 6.03763 27.3223 6.03763 7.47481 6.03763C6.25039 6.03763 5.78268 6.24225 5.79643 7.61976C5.86981 14.9756 5.86981 22.3315 5.79643 29.6873C5.79643 31.0511 6.19539 31.2965 7.46108 31.2965C17.4078 31.2556 27.3545 31.2829 37.3012 31.2829Z"
            fill="#28A9DF" />
        <path
            d="M51.7055 81.159C51.2928 72.7575 57.8413 64.5606 65.7106 62.2829C69.5049 61.1492 73.5541 61.164 77.3399 62.3253C81.1256 63.4867 84.4755 65.7417 86.9608 68.8017C89.4461 71.8617 90.9537 75.5875 91.2904 79.5019C91.6271 83.4163 90.7776 87.3412 88.8508 90.7742C88.6144 91.0855 88.512 91.4772 88.5662 91.8632C88.6203 92.2492 88.8265 92.5981 89.1397 92.8336C91.5197 95.2886 93.776 97.8527 96.1285 100.349C96.6375 100.88 96.61 101.194 96.1285 101.712C94.4638 103.199 92.8129 104.713 91.2033 106.254C90.5429 106.895 90.2403 106.336 89.8275 105.968C87.6126 103.581 85.3976 101.194 83.2239 98.7664C82.4948 97.9345 82.0133 97.9482 80.9815 98.521C78.3818 99.8825 75.515 100.668 72.5791 100.824C69.6432 100.979 66.7083 100.5 63.9772 99.4212C60.9357 98.2439 58.2423 96.3259 56.1457 93.8445C54.049 91.3631 52.6166 88.3982 51.9806 85.2233C51.7284 83.8839 51.636 82.5198 51.7055 81.159ZM56.9884 81.159C56.6169 88.8512 63.537 95.6705 71.2962 95.725C75.115 95.6525 78.7549 94.1074 81.4431 91.4175C84.1313 88.7276 85.6561 85.1048 85.6937 81.3185C85.7313 77.5321 84.2788 73.8804 81.6446 71.1386C79.0103 68.3967 75.4018 66.7807 71.5851 66.6337C63.7984 66.6201 56.6857 73.153 56.9884 81.1453V81.159Z"
            fill="#FCCD36" />
        <path
            d="M33.5592 48.2494C33.5359 51.0648 33.6783 53.8791 33.9857 56.678C34.1233 58.7238 35.8705 60.3605 36.861 62.1335C37.8515 63.9065 38.9384 65.775 40.0252 67.589C40.4654 68.3118 40.3279 68.8028 39.5987 69.1302C37.5951 70.0709 35.3862 70.5008 33.1725 70.381C30.9588 70.2611 28.8103 69.5953 26.9219 68.4439C25.0335 67.2925 23.4649 65.6918 22.3585 63.7872C21.252 61.8827 20.6428 59.7344 20.5859 57.5373C20.462 51.5226 25.2221 45.5352 30.6701 44.5668C33.4216 44.0622 33.5454 43.9669 33.5454 46.7219C33.5454 47.2674 33.5454 47.7584 33.5592 48.2494Z"
            fill="#28A9DF" />
        <path
            d="M36.8473 49.3948C36.9336 46.9173 36.8279 44.4369 36.5309 41.9755C36.3796 40.9935 36.696 40.7343 37.8379 40.8707C40.6612 41.1208 43.3694 42.0987 45.6935 43.7075C47.5532 45.0354 49.0886 46.7604 50.1863 48.755C51.284 50.7497 51.9159 52.9632 52.0357 55.2323C52.1044 56.0779 51.9256 56.596 50.8938 56.4869C46.5327 56.1187 42.144 56.105 37.7553 56.1596C36.8473 56.1596 36.8473 55.6414 36.8473 55.0003C36.8611 53.2546 36.8473 51.5088 36.8473 49.3948ZM38.4983 46.4352C38.7818 48.6968 38.8967 50.9761 38.8422 53.2545C38.8422 53.7592 38.8422 54.223 39.5713 54.223C42.7852 54.1218 46.0023 54.2311 49.2016 54.5503C49.8207 54.6322 49.9583 54.4549 49.8069 53.7184C49.4048 51.4528 48.4033 49.3335 46.9047 47.5771C45.4062 45.8208 43.4642 44.4901 41.2773 43.7211C38.5395 42.6164 38.4983 42.6982 38.4983 46.4352Z"
            fill="#28A9DF" />
        <path
            d="M43.2171 58.4375C44.7579 58.4375 46.2988 58.4375 47.8259 58.4375C48.7063 58.4375 49.0915 58.6284 49.0915 59.5968C49.0915 63.4974 46.9729 66.2798 44.1664 68.6938C43.6573 69.1303 43.3822 68.6938 43.1483 68.3529C41.3736 65.3523 39.5989 62.3382 37.8104 59.3377C37.3014 58.4921 37.8104 58.4512 38.4432 58.4512L43.2171 58.4375Z"
            fill="#28A9DF" />
        <path
            d="M49.0641 20.3577C49.0641 22.8673 49.0641 25.3632 49.0641 27.8727C49.0641 28.9092 48.7477 29.3458 47.6884 29.3321C43.0108 29.223 43.8776 29.9186 43.8225 25.5951C43.7675 21.2717 43.8225 17.3028 43.8225 13.1703C43.8225 12.0656 44.1252 11.6291 45.3083 11.6155C49.1191 11.6155 49.1192 11.5199 49.1192 15.2842L49.0641 20.3577Z"
            fill="#FCCD36" />
        <path
            d="M28.9367 20.3577C28.9367 22.8673 28.9367 25.3768 28.9367 27.8863C28.9367 28.9229 28.5928 29.3458 27.5609 29.3321C22.8834 29.223 23.7501 29.9186 23.6951 25.5815C23.64 21.2444 23.6951 17.3028 23.6951 13.1566C23.6951 12.0519 24.0253 11.6291 25.1946 11.6155C29.0055 11.6155 29.0055 11.5199 29.0055 15.2842L28.9367 20.3577Z"
            fill="#FCCD36" />
        <path
            d="M18.701 21.9403C18.701 23.9997 18.701 26.032 18.701 28.146C18.701 29.0734 18.4258 29.3462 17.4903 29.3325C12.9779 29.2234 13.7896 29.8916 13.7483 25.65C13.7483 22.2676 13.7483 18.8307 13.7483 15.5165C13.7483 14.5209 14.0234 14.2344 15.0414 14.2344C18.7285 14.2344 18.7285 14.2344 18.7285 17.8487L18.701 21.9403Z"
            fill="#FCCD36" />
        <path
            d="M59.2995 24.3404C59.2995 25.4861 59.2995 26.6317 59.2995 27.7637C59.2995 28.8957 58.8043 29.3186 57.7724 29.3049C53.1912 29.3049 54.0854 29.8231 54.0028 25.827C54.0028 23.9721 54.0028 22.131 54.0028 20.2761C54.0028 19.4441 54.2092 19.1303 55.1035 19.144C60.2075 19.2667 59.2307 18.4758 59.2307 23.0448L59.2995 24.3404Z"
            fill="#FCCD36" />
        <path
            d="M38.8284 24.2181C38.8284 25.5138 38.8284 26.8231 38.8284 28.1324C38.8284 28.9508 38.4982 29.3599 37.659 29.3054H37.3288C33.2016 29.3054 33.917 29.7553 33.8757 25.9774C33.8757 24.0816 33.8757 22.1723 33.8757 20.2629C33.8757 19.4309 34.0958 19.1582 34.9763 19.1309C38.8422 18.9945 38.8422 18.9671 38.8422 22.7314L38.8284 24.2181Z"
            fill="#FCCD36" />
    </g>
    <defs>
        <clipPath id="clip0_3210_1495">
            <rect width="96" height="106" fill="white" transform="translate(0.5 0.5)" />
        </clipPath>
    </defs>
</svg>